<svg width="685" height="615" viewBox="0 0 685 615" fill="none" xmlns="http://www.w3.org/2000/svg">
<g clip-path="url(#clip0_78_919)">
<path d="M631.913 446.261C631.913 493.496 584.94 526.342 540.574 510.131L365.821 446.275C350.749 440.768 334.214 440.768 319.142 446.276L144.428 510.126C100.062 526.339 53.0874 493.493 53.0874 446.257L53.0875 172.557C53.0875 124.282 101.987 91.3803 146.705 109.566L316.866 178.769C333.29 185.448 351.673 185.448 368.097 178.77L538.298 109.56C583.016 91.3767 631.913 124.278 631.913 172.552L631.913 446.261Z" fill="#FEEBF5"/>
<path fill-rule="evenodd" clip-rule="evenodd" d="M354.285 0.229887C387.846 7.35364 396.765 44.5191 398.194 63.5886C402.217 72.9632 407.65 92.5695 412.309 123.291C423.793 104.997 466.75 51.1964 487.481 85.488C498.33 103.434 455.89 119.778 413.766 133.47C415.616 147.169 417.298 162.824 418.653 180.512C430.814 164.52 455.454 141.912 485.428 151.66C502.464 157.201 452.85 197.651 419.713 195.896C420.664 211.37 421.365 228.231 421.725 246.522C440.469 218.837 495.349 154.423 522.493 198.891C537.333 223.204 479.585 245.355 421.96 263.936C421.986 267.55 422 271.215 422 274.931C422 286.43 421.87 297.83 421.626 309.087C438.294 284.911 477.728 243.941 526.493 259.891C553.14 268.607 452.446 335.162 421.15 326.762C420.601 343.825 419.807 360.493 418.832 376.603C452.66 318.672 522.508 311.962 517.165 337.34C505.938 390.672 444.353 402.772 416.978 403.871C415.489 423.62 413.764 442.295 411.937 459.551C457.07 420.46 515.864 383.302 510.359 409.449C499.125 462.814 437.471 474.896 410.122 475.982C405.815 513.351 401.208 542.664 397.928 559.754L390.072 558.246C393.595 539.885 398.689 507.124 403.272 465.299C332.216 464.789 276.859 405.734 298.904 387.891C344.656 350.86 390.113 414.603 405.855 440.099C407.949 418.157 409.829 394.315 411.253 369.186C352.842 349.959 281.355 312.575 307.904 303.891C356.06 288.14 395.116 327.896 412.136 352.174C413.019 333.42 413.631 314.053 413.878 294.311C368.069 279.531 311.607 250.493 332.465 243.768C370.106 231.633 400.643 262.211 413.988 280.946C413.996 278.944 414 276.939 414 274.931C414 263.157 413.863 251.907 413.607 241.172C356.077 222.609 298.544 200.491 313.36 176.218C339.986 132.599 393.301 193.747 413.016 222.227C412.134 199.462 410.713 179.278 408.971 161.567C381.743 160.542 319.761 148.546 308.494 95.0248C302.883 68.3741 370.168 95.9516 406.861 142.469C406.274 137.704 405.665 133.159 405.041 128.831C403.714 119.627 402.319 111.423 400.916 104.185C355.128 101.885 317.657 66.2908 334.969 60.6604C360.821 52.2525 382.705 67.9138 396.037 82.6403C395.017 78.8253 394.033 75.5475 393.11 72.7923C365.673 42.5544 335.986 -3.65428 354.285 0.229887Z" fill="#E7FEDE"/>
<path d="M347 568C347 560.268 353.268 554 361 554H433C440.732 554 447 560.268 447 568V738H347V568Z" fill="#FFF0CA"/>
<path d="M220.282 44.186C199.342 9.54752 155.723 64.7925 144.771 82.5333C144.249 83.3795 144 84.3366 144 85.3311C144 89.1196 147.693 91.8091 151.291 90.6215C191.791 77.2511 230.725 61.4607 220.282 44.186Z" fill="#E7FEDE"/>
<path d="M87.1746 187.809C85.3052 223.286 121.388 241.578 138.87 247.248C140.535 247.788 142.326 247.568 143.861 246.727C146.138 245.48 147.535 243.021 147.04 240.473C140.711 207.866 88.1234 169.803 87.1746 187.809Z" fill="#E7FEDE"/>
<path d="M187.466 121.769C228.047 108.685 260.371 145.25 271.797 163.094C272.588 164.33 272.803 165.831 272.452 167.256C271.686 170.367 268.458 172.191 265.419 171.175C220.291 156.091 167.129 128.325 187.466 121.769Z" fill="#E7FEDE"/>
<path fill-rule="evenodd" clip-rule="evenodd" d="M85.9751 310.46C88.4968 298.126 89.3461 266.773 72.5691 240.028C60.8702 255.649 68.0203 296.477 85.9751 310.46ZM116.855 262.023C116.217 272.57 110.085 298.176 90.6636 316.221C84.5761 301.016 99.255 269.465 116.855 262.023ZM97.8875 330.082C100.583 317.785 112.52 288.774 138.705 271.107C143.067 290.121 119.974 324.559 97.8875 330.082ZM165.338 291.702C152.098 297.067 121.16 316.104 103.331 349.337C124.261 350.8 160.508 317.994 165.338 291.702ZM85.7748 372.616C75.9173 362.285 46.8281 340.535 9.33072 336.173C15.6515 356.153 59.514 377.781 85.7748 372.616ZM83.6751 387.699C71.2822 380.596 37.1989 368.01 0.00854492 374.482C11.7599 391.841 59.9711 400.113 83.6751 387.699ZM170.23 485.149C161.239 474.957 134.027 452.34 97.1021 443.413C101.825 461.358 143.729 485.92 170.23 485.149ZM94.0071 459.986C103.774 464.593 125.747 480.116 135.499 505.347C118.76 505.338 94.3895 479.469 94.0071 459.986ZM84.0926 464.233C72.7599 473.02 40.6109 490.295 2.67628 489.096C11.9214 470.224 58.7432 455.246 84.0926 464.233ZM98.7505 399.85C112.903 397.885 149.227 398.923 181.305 418.8C163.912 430.519 116.096 420.208 98.7505 399.85ZM98.3018 379.498C111.852 374.97 147.749 369.328 182.936 382.983C167.995 397.693 119.096 396.327 98.3018 379.498ZM181.623 344.13C169.795 352.135 136.747 367.225 99.1765 363.54C109.599 345.355 157.059 333.516 181.623 344.13ZM85.0319 445.756C72.8422 453.201 39.1236 466.732 1.76698 461.297C13.0291 443.618 60.9905 434.007 85.0319 445.756ZM88.5269 426.955C74.832 433.696 38.3096 444.323 1.77849 432.909C9.08565 423.738 25.0931 418.088 42.0474 416.762C28.4833 416.469 15.5955 412.787 9.23335 405.895C38.6276 394.31 69.3375 400.875 81.0182 405.605C73.952 411.853 62.6846 415.436 50.9701 416.467C65.3172 416.642 79.3764 419.979 88.5269 426.955ZM95.8759 421.371C111.138 420.968 148.764 426.568 177.167 452.194C156.043 462.836 108.79 445.708 95.8759 421.371ZM16.5317 312.851C24.8184 322.336 49.2583 342.034 80.7242 344.942C75.389 326.177 38.5552 307.081 16.5317 312.851ZM82.5784 324.029C78.2418 312.209 62.4844 285.078 34.1473 271.111C32.4009 290.54 59.9466 321.541 82.5784 324.029Z" fill="#FBCCE4"/>
<path d="M79.8569 279.537C82.4263 290.847 85.2013 305.636 87.5951 322.507M76.921 509.297C82.8074 495.968 86.8901 480.648 89.5655 464.28M87.5951 322.507C90.6918 312.861 97.8836 292.749 101.877 289.475M87.5951 322.507C87.9349 324.902 88.2671 327.34 88.5899 329.815M88.5899 329.815C81.9601 324.164 68.1132 312.276 65.7644 309.938C62.8285 307.014 51.6719 292.106 48.1487 292.106M88.5899 329.815C89.2324 334.742 89.8379 339.819 90.393 345.015M90.393 345.015C97.3525 331.861 115.03 302.337 130.062 289.475M90.393 345.015C90.7117 347.999 91.0138 351.021 91.2969 354.077M91.2969 354.077C84.9391 347.646 64.6488 331.627 34.3498 318.999M91.2969 354.077C91.4494 355.724 91.5964 357.381 91.7375 359.047M91.7375 359.047C98.3467 354.662 114.031 343.554 123.896 334.2C133.761 324.846 149.732 310.814 156.485 304.968M91.7375 359.047C92.1365 363.758 92.4881 368.54 92.7832 373.37M92.7832 373.37C86.2235 372.688 70.9317 370.096 62.2413 365.185C51.3783 359.047 34.3498 350.277 27.8907 349.4M92.7832 373.37C92.884 375.021 92.9783 376.678 93.0657 378.339M92.7832 367.524C103.839 360.313 134.231 346.243 167.348 347.646M93.0657 378.339C98.4492 379.022 111.506 381.204 120.667 384.478C129.827 387.752 157.366 384.478 169.99 382.432M93.0657 378.339C93.2744 382.311 93.4434 386.309 93.5679 390.324M93.5679 390.324C85.8659 388.376 67.7609 384.478 56.9566 384.478C46.1523 384.478 26.227 380.386 17.6149 378.339M93.5679 390.324C93.6432 392.755 93.7023 395.192 93.7439 397.632M93.7992 410.202C79.1696 407.279 44.9779 403.186 25.2484 410.202M93.7992 410.202C93.8356 406.011 93.8153 401.817 93.7439 397.632M93.7992 410.202C93.7739 413.128 93.7209 416.053 93.6385 418.971M93.7439 397.632C105.36 403.186 135.757 414.411 164.412 414.879M93.6385 418.971C96.1888 422.284 104.754 429.495 118.611 431.833C135.933 434.756 147.971 445.28 160.889 447.911M93.6385 418.971C93.5309 422.785 93.373 426.588 93.1608 430.372M93.1608 430.372C89.8027 427.643 79.6221 423.005 65.7644 426.279C51.9068 429.553 29.848 429.397 20.5509 428.91M93.1608 430.372C92.9905 433.407 92.7853 436.429 92.543 439.433M92.1064 444.403C77.4538 444.695 43.2164 447.677 23.4868 457.265M92.1064 444.403C92.2635 442.752 92.409 441.096 92.543 439.433M92.1064 444.403C91.6936 448.739 91.1999 453.031 90.6188 457.265M92.543 439.433C104.071 449.372 131.412 470.594 148.558 475.973M90.6188 457.265C90.2952 459.623 89.9445 461.962 89.5655 464.28M90.6188 457.265C95.0792 460.177 107.9 471.7 123.5 494.5M89.5655 464.28C77.0322 463.598 45.6826 466.151 20.5509 481.819" stroke="#FFB3DA" stroke-width="4" stroke-linejoin="round"/>
<rect x="28" y="508" width="104" height="14" fill="#FEDF92"/>
<path d="M33 522H127L117 646H43L33 522Z" fill="#FEDF92"/>
<path d="M385 452.5C419.4 443.7 459.667 451.5 475.5 456.5C440 441 407.5 414.5 390.5 403C434 405 459.5 417.5 492 443C468.4 423 437.833 369.667 425.5 345.5C439.167 352.333 474.1 376.6 504.5 419C482.5 375 484.333 337 488 323.5C492 340 524.5 394 529.5 434C529.5 381.5 543.5 324 545 318C557.5 334.5 551.5 417 548 440C560 379.2 604.333 351 625.5 338C620.5 344 608.7 362 601.5 386C594.3 410 574.667 434.167 562.5 451.5C569.667 446.833 580 428.5 601.5 413C623.645 397.035 654.833 391 672 386C659.167 395.333 634.9 420.7 620.5 441.5C606.1 462.3 584 464.5 567.5 470.5C579.667 469.667 591.7 476.2 620.5 469C649.3 461.8 674.167 469.5 683 472.5C664.833 482.667 620.9 503 590.5 503C560.1 503 538.833 494 532 489.5C518.833 496 487.4 509 467 509C441.5 509 405 500.5 386.5 503C403.5 491.5 430 483.5 479.5 482.5C445.5 481 402.5 466 385 452.5Z" fill="#C8F9B4"/>
<path d="M530.5 486L565.574 516.75H495.426L530.5 486Z" fill="#FBCCE4"/>
<path d="M530.5 516L565.574 546.75H495.426L530.5 516Z" fill="#FBCCE4"/>
<path d="M530.5 546L565.574 576.75H495.426L530.5 546Z" fill="#FBCCE4"/>
<path d="M596 574C596 591.239 589.152 607.772 576.962 619.962C564.772 632.152 548.239 639 531 639C513.761 639 497.228 632.152 485.038 619.962C472.848 607.772 466 591.239 466 574L531 574H596Z" fill="#FEDF92"/>
<path d="M264 522.5C264 498.783 267.338 476.846 273 459C278.662 476.846 282 498.783 282 522.5C282 539.756 280.233 556.07 277.089 570.551C281.604 556.587 288.174 541.757 296.698 526.993C308.557 506.454 322.416 489.124 336.242 476.5C332.223 494.786 324.145 515.454 312.287 535.993C305.363 547.985 297.758 558.882 289.875 568.388C299.315 560.587 310.117 553.062 321.993 546.206C342.532 534.347 363.199 526.269 381.485 522.25C368.861 536.077 351.532 549.936 330.993 561.794C319.192 568.607 307.349 574.173 295.94 578.437C308.468 576.22 322.159 575 336.5 575C360.217 575 382.154 578.338 400 584C382.154 589.662 360.217 593 336.5 593C313.915 593 292.944 589.973 275.583 584.795C275.124 584.909 274.666 585.02 274.209 585.129L274.055 585.273C274.202 585.432 274.347 585.591 274.493 585.75C274.238 585.694 273.982 585.637 273.726 585.579C273.551 585.742 273.376 585.904 273.201 586.065C273.232 586.205 273.263 586.345 273.294 586.485C273.241 586.437 273.187 586.388 273.134 586.339C273.095 586.304 273.057 586.268 273.018 586.233C272.926 586.317 272.834 586.401 272.742 586.485C272.773 586.345 272.804 586.205 272.836 586.065C272.658 585.901 272.48 585.737 272.302 585.571C272.034 585.632 271.767 585.691 271.5 585.75C271.652 585.584 271.805 585.417 271.958 585.251L271.935 585.229C254.868 590.142 234.446 593 212.5 593C188.783 593 166.846 589.662 149 584C166.846 578.338 188.783 575 212.5 575C224.852 575 236.721 575.905 247.781 577.573C237.075 573.43 226.019 568.156 215 561.794C194.461 549.936 177.131 536.077 164.507 522.25C182.793 526.269 203.461 534.347 224 546.206C235.934 553.096 246.785 560.662 256.258 568.504C248.341 558.971 240.702 548.033 233.75 535.993C221.892 515.454 213.813 494.786 209.794 476.5C223.621 489.124 237.48 506.454 249.338 526.993C257.793 541.637 264.327 556.347 268.837 570.213C265.74 555.816 264 539.621 264 522.5Z" fill="#C8F9B4"/>
<path d="M265 586C265 581.582 268.582 578 273 578C277.418 578 281 581.582 281 586V699H265V586Z" fill="#FBCCE4"/>
</g>
<path d="M268.234 521C258.586 521 253 526.875 253 535.953C253 540.318 254.526 543.819 256.393 546.337L259.13 568H268.324V549.944C271.813 551.582 275.083 556.354 277.98 560.581C280.684 564.528 283.063 568 284.991 568H327.191C328.077 568 328.877 567.436 328.965 566.563C329.702 559.271 318.639 550.907 303.271 550.907C299.137 550.907 293.047 543.883 286.769 536.643C280.093 528.944 273.206 521 268.234 521Z" fill="#6CBBD7"/>
<path d="M179 535.953C179 526.875 186.647 521 192.233 521C195.111 521 205.048 528.944 208.913 536.643C212.547 543.883 216.073 550.907 218.467 550.907C227.364 550.907 230.819 559.271 230.393 566.563C230.342 567.436 229.879 568 229.366 568H198.5C197.384 568 196.007 564.528 194.441 560.581C192.764 556.354 190.5 552.5 190.5 552.5L188.851 568H183L181.943 546.337C180.862 543.819 179 540.318 179 535.953Z" fill="#6CBBD7"/>
<path d="M207.502 514.032L236.389 442.024C236.795 441.012 237.072 439.953 237.213 438.871L249.5 345L275 296H202.5C202.5 296 184.5 322.5 186.5 351.5C188.402 379.074 197.988 417.678 198.926 428.972C199.002 429.882 198.366 430.637 197.542 431.032C179.857 439.507 189.5 514.271 189.5 524.5C190 553 200.502 550.5 207.502 550.5C221.002 550.5 200.294 532 207.502 514.032Z" fill="#D58E54"/>
<path d="M312.992 423.484C312.934 416.85 312.486 389.929 309 372.5C305 352.5 289 296 289 296H244.5C244.5 313.731 246.4 354.955 254 378L268.634 422.374C269.061 423.667 268.073 424.994 266.74 425.274C245.26 429.784 258.194 488.891 263.915 528.472C264.659 533.615 267.263 538.323 271.31 541.583L279.601 548.262C281.801 550.034 284.54 551 287.364 551H294.051C296.314 551 297.488 548.302 295.946 546.646C290.045 540.308 287.703 531.439 289.705 523.013L312.648 426.482C312.882 425.497 313 424.496 312.992 423.484Z" fill="#D58E54"/>
<path d="M131.311 449.768C143.813 418.46 180.309 328.285 197.887 297.887C198.588 296.673 199.857 296 201.259 296H289.627C291.344 296 292.869 297.095 293.418 298.722L344.441 450.066C346.189 455.251 342.332 460.622 336.861 460.622H138.746C133.105 460.622 129.219 455.007 131.311 449.768Z" fill="#FFB3DA"/>
<path d="M293.584 272.146L247.867 217.4C244.018 212.791 244.266 204.673 247.292 199.448C252.628 190.235 264.962 191.306 270.936 200.047C281.226 215.104 295.72 236.01 306.84 250.854C308.397 252.931 311.499 252.943 313.371 251.122C315.243 249.301 323.221 238.274 339.579 234.149C344.318 232.954 348.431 229.857 350.521 225.432L352.525 221.187C352.963 220.259 353.63 219.458 354.463 218.858L363.912 212.048C364.929 211.316 366.146 210.917 367.396 210.908L373.974 210.858C375.546 210.846 376.507 212.568 375.677 213.908L374.994 215.012C374.153 216.37 372.808 217.342 371.257 217.714L369.089 218.233C368.758 218.312 368.44 218.439 368.145 218.61L367.566 218.946C366.213 219.73 365.744 221.459 366.52 222.808C367.159 223.919 368.471 224.454 369.711 224.11L377.632 221.907C378.588 221.642 379.464 221.144 380.184 220.459L388.591 212.456C389.354 211.73 390.541 211.706 391.325 212.4C391.919 212.927 392.146 213.757 391.905 214.518L390.155 220.023C389.94 220.701 389.85 221.412 389.89 222.121C389.974 223.587 389.5 225.034 388.564 226.171L388.158 226.663C387.595 227.346 387.261 228.188 387.201 229.07L387.154 229.768C387.089 230.737 386.544 231.611 385.702 232.099L385.529 232.2C384.846 232.596 384.387 233.289 384.29 234.072C384.193 234.855 383.734 235.549 383.051 235.945L379.821 237.817C379.232 238.158 378.572 238.359 377.893 238.401C377.106 238.451 376.341 238.715 375.688 239.161C368.912 243.785 361.644 247.719 354.07 250.854L302.766 274.388C299.532 275.727 295.816 274.82 293.584 272.146Z" fill="#D58E54"/>
<path d="M372.189 214.6C370.886 214.86 369.69 214.366 369.516 213.498C369.343 212.629 370.258 211.714 371.561 211.454C372.864 211.194 374.061 211.688 374.234 212.556C374.407 213.425 373.492 214.34 372.189 214.6Z" fill="#F23116"/>
<path d="M210 193H261C273.549 212.484 282.229 234.203 286.566 256.969L293.096 291.252C293.565 293.716 291.675 296 289.166 296H201.537C199.129 296 197.267 293.888 197.568 291.499L210 193Z" fill="#FFB3DA"/>
<path d="M247.132 217.739C242.744 210.012 245.348 200.133 252.948 195.672L253.808 195.167C261.408 190.706 271.127 193.353 275.515 201.08L283.954 212.222C285.051 214.154 284.4 216.624 282.5 217.739L259.51 231.458C257.61 232.573 255.181 231.912 254.084 229.98L247.132 217.739Z" fill="#FFB3DA"/>
<path d="M200.477 279.997L193.792 223.197C192.921 215.796 198.204 209.086 205.603 208.197C213.716 207.223 220.845 213.603 220.872 221.774C220.92 236.099 221.249 256.878 222.628 268.212C222.942 270.793 225.631 272.36 228.167 271.723C244.478 267.621 267.816 270.986 284.085 275.625C288.799 276.969 293.918 276.351 297.944 273.568L301.805 270.898C302.649 270.315 303.629 269.955 304.651 269.854L316.261 268.7C317.51 268.576 318.767 268.842 319.856 269.46L325.595 272.719C326.967 273.498 326.942 275.472 325.551 276.216L324.406 276.828C322.997 277.582 321.344 277.749 319.81 277.292L317.668 276.654C317.341 276.556 317.002 276.507 316.66 276.507H315.989C314.422 276.507 313.151 277.769 313.151 279.327C313.151 280.61 314.023 281.731 315.273 282.055L323.253 284.124C324.216 284.374 325.226 284.383 326.193 284.151L337.494 281.44C338.519 281.194 339.562 281.769 339.896 282.763C340.149 283.518 339.932 284.351 339.342 284.888L335.072 288.778C334.546 289.257 334.113 289.828 333.794 290.462C333.134 291.773 332 292.788 330.619 293.303L330.021 293.526C329.19 293.835 328.479 294.396 327.987 295.129L327.597 295.71C327.057 296.516 326.146 297.001 325.172 297.001L324.971 297.001C324.18 297.001 323.434 297.371 322.959 298C322.485 298.63 321.739 299 320.948 299L317.207 299C316.525 299 315.851 298.842 315.241 298.539C314.532 298.186 313.736 298.031 312.945 298.09C304.75 298.693 296.472 298.452 288.327 297.364L207.333 286.548C203.855 286.084 201.081 283.433 200.477 279.997Z" fill="#D58E54"/>
<path d="M190 213.429C190 202.146 199.146 193 210.429 193C217.372 193 223 198.628 223 205.571V223C223 225.209 221.209 227 219 227H194C191.791 227 190 225.209 190 223V213.429Z" fill="#FFB3DA"/>
<path d="M321.278 274.809C320.02 274.383 319.23 273.358 319.514 272.519C319.799 271.68 321.049 271.346 322.307 271.772C323.565 272.198 324.355 273.223 324.071 274.062C323.787 274.901 322.536 275.236 321.278 274.809Z" fill="#F23116"/>
<path d="M337.351 285.4C336.201 286.064 334.984 286.11 334.634 285.504C334.284 284.897 334.933 283.867 336.083 283.203C337.234 282.538 338.45 282.492 338.8 283.098C339.151 283.705 338.502 284.735 337.351 285.4Z" fill="#F23116"/>
<path d="M205.854 142.132C205.775 141.25 205.734 140.357 205.734 139.454C205.734 123.187 218.979 110 235.318 110C245.056 110 253.695 114.685 259.086 121.914C278.889 118.607 294.266 121.174 297.419 129.567C301.894 141.483 280.039 160.631 248.604 172.334C217.168 184.037 188.057 183.865 183.581 171.949C180.529 163.822 189.725 152.331 205.854 142.132Z" fill="#F4B510"/>
<path fill-rule="evenodd" clip-rule="evenodd" d="M263.532 172.582C265.748 168.671 267 164.008 267 159C267 157.068 266.426 155.664 265.809 154.153C265.362 153.061 265.167 151.895 264.972 150.729C264.916 150.388 264.859 150.048 264.795 149.709C262.938 139.755 248.86 138.236 240 141.5C229.075 145.525 226.658 151.188 225.043 154.971C224.845 155.436 224.658 155.872 224.47 156.274C223.834 157.629 222.216 157.378 221.473 156.078C219.438 152.516 214 153.96 214 158.062V161C214 163.209 215.791 165 218 165C220.155 165 221.984 166.506 222.762 168.516C222.839 168.715 222.918 168.912 223 169.108V192C223 200.837 230.163 208 239 208H241.568C246.83 208 250.659 203.007 249.294 197.925L246.606 187.92C247.064 187.973 247.529 188 248 188C252.002 188 255.547 186.041 257.727 183.029C259.219 180.968 260.396 178.64 261.565 176.326C262.206 175.058 262.845 173.795 263.532 172.582Z" fill="#D58E54"/>
<path d="M249 153L249.699 157.892C249.898 159.286 250.35 160.631 251.034 161.861L252.572 164.629C253.661 166.59 252.243 169 250 169V169" stroke="#1A2027" stroke-width="2"/>
<path d="M256 165C256 166.105 255.105 167 254 167L253 167" stroke="#1A2027" stroke-width="2"/>
<path d="M247 167C245.895 167 245 166.105 245 165" stroke="#1A2027" stroke-width="2"/>
<path d="M253 174.441L242.176 172C242.176 172 240.695 177.088 246.325 178.716C251.955 180.344 253 174.441 253 174.441Z" fill="#C61800"/>
<path d="M243 152C240.791 149.333 237.209 149.333 235 152" stroke="#1A2027" stroke-width="2"/>
<path d="M243 155C240.791 152.333 237.209 152.333 235 155C238.2 158.6 241.667 156.5 243 155Z" fill="white"/>
<path d="M263 155C260.791 152.333 257.209 152.333 255 155C258.2 158.6 261.667 156.5 263 155Z" fill="white"/>
<path d="M263 152C260.791 149.333 257.209 149.333 255 152" stroke="#1A2027" stroke-width="2"/>
<path d="M262 158C260.343 156.667 257.657 156.667 256 158" stroke="#1A2027" stroke-width="2"/>
<path d="M242 158C240.343 156.667 237.657 156.667 236 158" stroke="#1A2027" stroke-width="2"/>
<circle cx="239" cy="155" r="2" fill="#1A2027"/>
<circle cx="259" cy="155" r="2" fill="#1A2027"/>
<defs>
<clipPath id="clip0_78_919">
<rect width="685" height="615" fill="white"/>
</clipPath>
</defs>
</svg>
