<svg width="762" height="711" viewBox="0 0 762 711" fill="none" xmlns="http://www.w3.org/2000/svg">
<g clip-path="url(#clip0_77_328)">
<path d="M657.709 545.387C658.06 545.222 658.285 544.869 658.285 544.481V285.991C658.285 285.603 658.06 285.25 657.709 285.085L381.411 155.635C381.142 155.509 380.831 155.509 380.563 155.635L104.265 285.085C103.914 285.25 103.689 285.603 103.689 285.991V544.481C103.689 544.869 103.914 545.222 104.265 545.387L380.563 674.837C380.832 674.963 381.142 674.963 381.411 674.837L657.709 545.387Z" fill="#FFF0CA"/>
<rect x="261" y="40" width="460.24" height="345.18" rx="17.4333" fill="#EBF9FE"/>
<rect x="313.3" y="87.0699" width="160.387" height="71.4767" rx="6.97333" fill="#FFF0CA"/>
<rect x="313.3" y="177.723" width="160.387" height="71.4767" rx="6.97333" fill="#FFF0CA"/>
<rect x="313.3" y="268.377" width="160.387" height="71.4767" rx="6.97333" fill="#FFF0CA"/>
<rect x="506.81" y="87.0699" width="160.387" height="71.4767" rx="6.97333" fill="#FFF0CA"/>
<rect x="506.81" y="177.723" width="160.387" height="71.4767" rx="6.97333" fill="#FFF0CA"/>
<rect x="506.81" y="268.377" width="160.387" height="71.4767" rx="6.97333" fill="#FFF0CA"/>
<path d="M323.76 141.113L343.489 124.37C346.798 121.562 351.743 121.904 354.633 125.142V125.142C357.716 128.596 363.078 128.719 366.316 125.411L373.719 117.85C380.564 110.859 392.045 111.676 397.831 119.566V119.566C401.911 125.131 409.124 127.417 415.665 125.219L422.618 122.882C425.976 121.754 429.68 122.455 432.393 124.735V124.735C436.806 128.442 443.416 127.742 446.954 123.191L461.483 104.503" stroke="#FECE00" stroke-width="4"/>
<path d="M517.27 141.113L527.172 131.871C529.279 129.905 531.621 128.206 534.145 126.813L542.184 122.378C550.466 117.809 560.584 118.138 568.551 123.237V123.237C574.233 126.873 581.113 128.139 587.718 126.764L598.335 124.552L614.629 122.103C619.079 121.434 623.133 119.164 626.027 115.718V115.718C630.842 109.987 638.64 107.728 645.773 109.997L653.161 112.348" stroke="#FECE00" stroke-width="4"/>
<path d="M460.612 222.178H442.587C436.797 222.178 431.212 220.027 426.918 216.142L426.63 215.881C419.769 209.673 409.803 208.248 401.461 212.252V212.252C396.348 214.706 390.483 215.16 385.057 213.509L379.544 211.831C375.734 210.672 371.598 211.496 368.524 214.027V214.027C363.183 218.426 355.229 217.352 351.245 211.695L348.682 208.054C345.682 203.793 340.797 201.258 335.585 201.258H323.76" stroke="#F4B510" stroke-width="4"/>
<path d="M517.27 231.767L548.673 223.533C552.098 222.635 555.367 221.223 558.369 219.344L569.362 212.461C576.419 208.043 584.82 206.286 593.057 207.505L606.832 209.543C616.228 210.933 625.786 208.445 633.311 202.649L633.985 202.13L653.25 189.927" stroke="#FECE00" stroke-width="4"/>
<path d="M323.76 299.757L337.463 294.682C343.868 292.309 350.84 291.926 357.467 293.583V293.583C362.25 294.779 366.715 297.003 370.551 300.101L384.809 311.617C386.514 312.995 388.472 314.027 390.571 314.657L392.81 315.329C399.678 317.389 407.007 314.023 409.919 307.471V307.471C412.946 300.661 420.709 297.335 427.726 299.842L436.925 303.127C438.763 303.783 440.517 304.655 442.15 305.723L462.355 318.933" stroke="#F4B510" stroke-width="4"/>
<path d="M652.378 310.217L642.435 314.942C633.45 319.213 622.69 316.116 617.349 307.722V307.722C614.145 302.686 608.831 299.373 602.899 298.714L592.818 297.594C590.137 297.296 587.557 296.405 585.263 294.985L581.841 292.867C575.471 288.923 567.124 290.707 562.922 296.91L560.362 300.689C556.303 306.682 547.576 306.968 543.132 301.255V301.255C541.114 298.659 538.01 297.142 534.723 297.142H517.27" stroke="#F4B510" stroke-width="4"/>
<rect x="632.337" y="233.973" width="48.8133" height="52.3" rx="3.48667" fill="#CCEFFB"/>
<path d="M630.593 226.743C629.489 226.743 628.593 227.639 628.593 228.743V238.744C628.593 248.116 627.287 257.441 624.713 266.452L621.697 277.007C621.524 277.611 621.645 278.26 622.023 278.761C622.401 279.262 622.992 279.557 623.62 279.557H665.46C666.353 279.557 667.138 278.965 667.383 278.106L670.399 267.551C673.075 258.183 674.433 248.487 674.433 238.744V228.743C674.433 227.639 673.538 226.743 672.433 226.743H630.593Z" fill="white" stroke="#CCEFFB" stroke-width="4" stroke-linecap="round" stroke-linejoin="round"/>
<circle cx="650.5" cy="265.5" r="3.5" fill="#9DDEF4"/>
<path d="M650.5 258C650.5 253.778 654.028 251.697 655.97 248.756C656.622 247.769 657 246.594 657 245.333C657 241.836 654.09 239 650.5 239C646.91 239 644 241.836 644 245.333C644 247.022 644.722 248.148 645.083 248.5" stroke="#9DDEF4" stroke-width="4" stroke-linejoin="round"/>
<rect x="293.46" y="137.973" width="48.8133" height="52.3" rx="3.48667" fill="#CCEFFB"/>
<path d="M291.717 130.743C290.612 130.743 289.717 131.639 289.717 132.743V142.744C289.717 152.116 288.411 161.441 285.836 170.452L282.82 181.007C282.648 181.611 282.769 182.26 283.147 182.761C283.525 183.262 284.116 183.557 284.743 183.557H326.583C327.476 183.557 328.261 182.965 328.506 182.106L331.522 171.551C334.199 162.183 335.557 152.487 335.557 142.744V132.743C335.557 131.639 334.661 130.743 333.557 130.743H291.717Z" fill="#FBCCE4" stroke="#CCEFFB" stroke-width="4" stroke-linecap="round" stroke-linejoin="round"/>
<path d="M297.123 153.5L303.459 150.172C304.168 149.799 305.045 150.065 305.428 150.769V150.769C306.02 151.858 307.611 151.766 308.074 150.617L309.412 147.296C310.475 144.658 314.212 144.665 315.265 147.306L316.075 149.336C316.956 151.545 320.029 151.689 321.112 149.572V149.572C321.92 147.995 323.979 147.571 325.343 148.7L328.123 151" stroke="#F778B9" stroke-width="3"/>
<path d="M294.123 165.5L297.614 162.358C298.41 161.642 299.656 161.799 300.25 162.69V162.69C301.038 163.873 302.832 163.677 303.348 162.352L303.754 161.306C304.483 159.433 307.065 159.297 307.947 161.103C309.694 164.678 311.394 168.458 311.123 169C310.801 169.646 313.495 165.993 315.686 162.982C316.491 161.877 318.023 161.6 319.161 162.358V162.358C320.456 163.222 322.217 162.729 322.875 161.318L325.123 156.5" stroke="#F778B9" stroke-width="3"/>
<rect x="471.943" y="116.707" width="48.8133" height="52.3" rx="3.48667" fill="#CCEFFB"/>
<path d="M470.2 109.477C469.095 109.477 468.2 110.372 468.2 111.477V121.478C468.2 130.849 466.894 140.174 464.319 149.185L461.304 159.74C461.131 160.344 461.252 160.993 461.63 161.494C462.008 161.995 462.599 162.29 463.227 162.29H505.067C505.96 162.29 506.744 161.698 506.99 160.839L510.006 150.284C512.682 140.916 514.04 131.221 514.04 121.478V111.477C514.04 110.372 513.145 109.477 512.04 109.477H470.2Z" fill="white" stroke="#CCEFFB" stroke-width="4" stroke-linecap="round" stroke-linejoin="round"/>
<path d="M488.636 125.484C489.022 124.821 489.978 124.821 490.364 125.484L493.642 131.112C493.784 131.355 494.021 131.527 494.295 131.586L500.661 132.965C501.41 133.127 501.706 134.037 501.195 134.609L496.855 139.466C496.668 139.675 496.578 139.954 496.606 140.233L497.262 146.714C497.339 147.476 496.565 148.038 495.864 147.729L489.903 145.103C489.646 144.989 489.354 144.989 489.097 145.103L483.136 147.729C482.435 148.038 481.661 147.476 481.738 146.714L482.394 140.233C482.422 139.954 482.332 139.675 482.145 139.466L477.805 134.609C477.294 134.037 477.59 133.127 478.339 132.965L484.705 131.586C484.979 131.527 485.216 131.355 485.357 131.112L488.636 125.484Z" fill="#FECE00"/>
<g clip-path="url(#clip1_77_328)">
<circle cx="182.62" cy="138.37" r="29.37" fill="#FEDF92"/>
<path d="M161.28 171.009L150.122 187.695M152.414 165L137.25 172.538" stroke="#FEDF92" stroke-width="4" stroke-linejoin="round"/>
<path d="M181.25 62.0498L271.25 148.05H91.25L181.25 62.0498Z" fill="#CCEFFB" stroke="#CCEFFB" stroke-width="4" stroke-linejoin="round"/>
<path d="M181.25 -65.9502L181.25 82.0498" stroke="#CCEFFB" stroke-width="4" stroke-linejoin="round"/>
<path d="M184 72L259 143" stroke="#EBF9FE" stroke-width="4"/>
</g>
<path d="M115 433.5C115 409.783 118.338 387.846 124 370C129.662 387.846 133 409.783 133 433.5C133 450.756 131.233 467.07 128.089 481.551C132.604 467.587 139.174 452.757 147.698 437.993C159.557 417.454 173.416 400.124 187.242 387.5C183.223 405.786 175.145 426.454 163.287 446.993C156.363 458.985 148.758 469.882 140.875 479.388C150.315 471.587 161.117 464.062 172.993 457.206C193.532 445.347 214.199 437.269 232.485 433.25C219.861 447.077 202.532 460.936 181.993 472.794C170.192 479.607 158.349 485.173 146.94 489.437C159.468 487.22 173.159 486 187.5 486C211.217 486 233.154 489.338 251 495C233.154 500.662 211.217 504 187.5 504C164.915 504 143.944 500.973 126.583 495.795C126.124 495.909 125.666 496.02 125.209 496.129L125.055 496.273C125.202 496.432 125.347 496.591 125.493 496.75C125.238 496.694 124.982 496.637 124.726 496.579C124.551 496.742 124.376 496.904 124.201 497.065C124.232 497.205 124.263 497.345 124.294 497.485C124.241 497.437 124.187 497.388 124.134 497.339C124.095 497.304 124.057 497.268 124.018 497.233C123.926 497.317 123.834 497.401 123.742 497.485C123.773 497.345 123.804 497.205 123.836 497.065C123.658 496.901 123.48 496.737 123.302 496.571C123.034 496.632 122.767 496.691 122.5 496.75C122.652 496.584 122.805 496.417 122.958 496.251L122.935 496.229C105.868 501.142 85.4456 504 63.5 504C39.7834 504 17.8458 500.662 0 495C17.8458 489.338 39.7834 486 63.5 486C75.8516 486 87.7207 486.905 98.7805 488.573C88.0751 484.43 77.0191 479.156 66 472.794C45.4609 460.936 28.1313 447.077 15.5074 433.25C33.7934 437.269 54.4609 445.347 75.0001 457.206C86.9342 464.096 97.7848 471.662 107.258 479.504C99.341 469.971 91.7016 459.033 84.7499 446.993C72.8916 426.454 64.8135 405.786 60.7941 387.5C74.6206 400.124 88.4801 417.454 100.338 437.993C108.793 452.637 115.327 467.347 119.837 481.213C116.74 466.816 115 450.621 115 433.5Z" fill="#C8F9B4"/>
<path d="M116 497C116 492.582 119.582 489 124 489C128.418 489 132 492.582 132 497V610H116V497Z" fill="#FEDF92"/>
<path d="M176 610H72V619H78.4286L87 649H161L169.571 619H176V610Z" fill="#FEEBF5"/>
<g clip-path="url(#clip2_77_328)">
<path d="M252.234 648C242.586 648 237 653.875 237 662.953C237 667.318 238.526 670.819 240.393 673.337L243.13 695H252.324V676.944C255.813 678.582 259.083 683.354 261.98 687.581C264.684 691.528 267.063 695 268.991 695H311.191C312.077 695 312.877 694.436 312.965 693.563C313.702 686.271 302.639 677.907 287.271 677.907C283.137 677.907 277.047 670.883 270.769 663.643C264.093 655.944 257.206 648 252.234 648Z" fill="#F97600"/>
<path d="M141.006 618.881C134.184 612.059 126.08 612.263 119.661 618.683C116.574 621.769 115.178 625.324 114.717 628.424L101.334 645.678L107.836 652.179L120.603 639.412C121.912 643.037 120.85 648.724 119.909 653.761C119.031 658.464 118.258 662.601 119.621 663.964L149.461 693.804C150.088 694.431 151.052 694.598 151.731 694.043C157.409 689.407 155.5 675.67 144.634 664.803C141.711 661.88 142.371 652.607 143.051 643.049C143.775 632.884 144.522 622.397 141.006 618.881Z" fill="#F97600"/>
<path d="M250.74 552.274C229.26 556.784 242.194 615.891 247.915 655.472C248.659 660.615 251.263 665.323 255.31 668.583L263.601 675.262C265.801 677.034 268.54 678 271.364 678H278.051C280.314 678 281.488 675.302 279.946 673.646C274.045 667.308 271.703 658.439 273.705 650.013L293.792 565.5L273 423H228.5C228.5 440.731 230.4 481.955 238 505L252.634 549.374C253.061 550.667 252.073 551.994 250.74 552.274Z" fill="#D58E54"/>
<path d="M188.845 558.504C156.042 558.923 143.398 590.844 128.708 625.331C128.088 626.788 127.849 628.382 128.018 629.957L128.944 638.551C129.779 646.307 133.242 653.543 138.758 659.059C140.088 660.389 142.364 659.494 142.432 657.614L142.507 655.51C142.798 647.347 146.331 639.637 152.324 634.087L214.5 576.5L190.024 558.877C189.683 558.632 189.265 558.499 188.845 558.504Z" fill="#D58E54"/>
<path d="M226.568 503.754L241.71 538.582C243.489 542.674 243.478 547.322 241.682 551.405L235.279 565.956C234.115 568.602 233.689 571.515 234.048 574.384L239.562 618.496C239.812 620.498 241.514 622 243.531 622H281.734C283.635 622 285.273 620.662 285.653 618.8L299.836 549.306C299.944 548.774 299.943 548.226 299.833 547.695L274.33 424.594C274.138 423.666 273.32 423 272.372 423H266.222L226.568 503.754Z" fill="#FFB3DA"/>
<path fill-rule="evenodd" clip-rule="evenodd" d="M235.44 485.686L227.832 506.662L241.71 538.582C243.489 542.674 243.478 547.322 241.682 551.405L239.705 555.899C247.334 549.562 256 539.122 256 523V443.817L235.44 485.686Z" fill="#F778B9"/>
<path d="M180.328 614.636L215.648 578.869C216.537 577.969 217.199 576.872 217.582 575.666L266 423H186.214C185.468 423 184.784 423.415 184.44 424.077L176.842 438.689C169.459 452.886 166.622 469.009 168.714 484.872L176.964 547.437C177.301 549.988 176.39 552.545 174.516 554.309L146.502 580.674C144.859 582.221 144.82 584.82 146.415 586.415L174.654 614.654C176.223 616.223 178.769 616.215 180.328 614.636Z" fill="#FFB3DA"/>
</g>
<path d="M295.974 323.536C298.48 319.34 299.198 314.242 297.547 309.636L295.963 305.216C295.617 304.251 295.521 303.212 295.686 302.2L297.553 290.702C297.754 289.466 298.333 288.323 299.209 287.433L303.826 282.746C304.929 281.626 306.826 282.164 307.187 283.699L307.484 284.962C307.85 286.518 307.587 288.156 306.752 289.515L305.586 291.415C305.408 291.705 305.273 292.02 305.186 292.349L305.013 292.997C304.611 294.508 305.503 296.062 307.005 296.467C308.243 296.801 309.548 296.252 310.182 295.131L314.226 287.973C314.714 287.109 314.982 286.137 315.006 285.144L315.292 273.54C315.318 272.488 316.14 271.631 317.185 271.568C317.978 271.52 318.725 271.946 319.092 272.655L321.749 277.785C322.076 278.417 322.515 278.983 323.045 279.456C324.14 280.434 324.828 281.792 324.97 283.258L325.031 283.892C325.117 284.773 325.475 285.606 326.056 286.271L326.517 286.798C327.156 287.529 327.389 288.533 327.139 289.473L327.087 289.666C326.884 290.43 327.05 291.245 327.535 291.867C328.02 292.489 328.186 293.304 327.983 294.067L327.023 297.674C326.848 298.333 326.523 298.941 326.073 299.451C325.552 300.043 325.198 300.77 325.051 301.548C323.529 309.609 321.172 317.53 318.032 325.102C284.512 415.442 261.022 382.06 295.974 323.536Z" fill="#D58E54"/>
<path d="M305.209 286.654C304.472 287.759 303.277 288.257 302.54 287.765C301.804 287.274 301.804 285.979 302.541 284.874C303.279 283.769 304.474 283.272 305.21 283.763C305.947 284.255 305.947 285.549 305.209 286.654Z" fill="#FAC798"/>
<path d="M236.263 365.506L275.203 409.832C278.487 413.571 284.307 413.4 287.158 409.321C292.1 402.254 299.347 390.997 305 378.5C313.178 360.423 317.65 336.048 318.737 329.612C318.897 328.667 318.347 327.768 317.444 327.447L298.099 320.569C297.177 320.241 296.152 320.629 295.679 321.485L277.575 354.227C275.864 357.32 271.277 356.837 270.247 353.456L266 339.5L248.791 338.954C234.796 338.51 227.022 354.986 236.263 365.506Z" fill="#F97600"/>
<path fill-rule="evenodd" clip-rule="evenodd" d="M275.5 356.039V377C275.5 383.782 279.718 397.488 284.788 411.514C281.765 413.272 277.732 412.711 275.203 409.832L236.263 365.506C227.022 354.986 234.796 338.51 248.791 338.954L266 339.5L270.247 353.456C270.976 355.85 273.488 356.791 275.5 356.039Z" fill="#DE5000"/>
<path d="M205 320H235.5L273 423H187L191.406 407.5L205 320Z" fill="#D58E54"/>
<path d="M265.67 335.942C267.978 343.793 270.28 353.256 270.5 363C270.726 373.016 269.993 382.831 268.946 392C274.924 402.133 276.724 413.243 277.266 419.015C277.473 421.215 275.705 423 273.496 423H183.501C181.292 423 179.491 421.207 179.652 419.004C180.629 405.632 185.998 392 185.998 392L185.998 320L209.5 316.5L209.002 317.829C207.46 321.941 208.287 326.567 211.159 329.89L229.888 351.556C230.845 352.664 232.638 352.354 233.168 350.988C236.868 341.441 236.197 330.752 231.332 321.743L228.5 316.5C238.134 316.5 262.953 326.699 265.67 335.942Z" fill="#F97600"/>
<path fill-rule="evenodd" clip-rule="evenodd" d="M183 401.16C184.537 395.711 185.998 392 185.998 392L185.998 341.615C188.859 342.802 191.511 345.672 193.607 349.933C196.42 355.653 198 363.411 198 371.5C198 379.589 196.42 387.347 193.607 393.067C190.794 398.787 186.978 402 183 402V401.16Z" fill="#DE5000"/>
<path d="M147.219 398.668L172.559 329.404C174.626 323.756 180 320 186.014 320C196.617 320 203.575 331.122 198.997 340.686C190.893 357.616 179.664 381.494 172.38 398.703C171.585 400.582 172.362 402.723 174.029 403.898C195.947 419.338 209.587 466.325 211.5 473.5C213.35 480.438 219.908 497.219 220.879 499.693C220.962 499.904 221.004 500.116 221.013 500.342L221.461 512.454C221.486 513.109 221.187 513.735 220.663 514.128L220.079 514.565C218.892 515.456 217.183 514.789 216.913 513.33L215.066 503.355C215.022 503.12 214.937 502.895 214.814 502.69L210.425 495.374C210.138 494.897 209.403 495.175 209.504 495.723L211.431 506.129C211.477 506.374 211.476 506.626 211.429 506.871L209.221 518.35C209.085 519.061 208.575 519.642 207.889 519.87L207.341 520.053C205.988 520.504 204.612 519.435 204.713 518.013L205.474 507.367C205.491 507.124 205.464 506.881 205.394 506.648L202.969 498.596C202.809 498.065 202.032 498.151 201.992 498.704L201.534 505.024C201.512 505.337 201.416 505.64 201.255 505.909L194.742 516.764C194.299 517.502 193.433 517.874 192.593 517.687L191.915 517.537C190.672 517.26 190 515.908 190.531 514.751L194.836 505.357C194.944 505.121 195.006 504.867 195.016 504.607L195.216 499.804C195.242 499.185 194.342 499.081 194.226 499.69L193.693 502.486C193.572 503.122 193.15 503.66 192.562 503.93L183.689 507.997C182.551 508.518 181.219 507.878 180.916 506.663L180.818 506.271C180.625 505.499 180.908 504.686 181.539 504.201L186.3 500.539C186.746 500.196 187.027 499.68 187.073 499.12L187.438 494.74C187.478 494.265 187.334 493.793 187.036 493.42C183.739 489.299 183.488 483.518 186.416 479.126L186.5 479L147.652 405.14C146.6 403.141 146.443 400.79 147.219 398.668Z" fill="#D58E54"/>
<path d="M221 512C221 513.105 220.328 514 219.5 514C218.672 514 218 513.105 218 512C218 510.895 218.672 510 219.5 510C220.328 510 221 510.895 221 512Z" fill="#FAC798"/>
<path d="M209 517C209 518.105 208.328 519 207.5 519C206.672 519 206 518.105 206 517C206 515.895 206.672 515 207.5 515C208.328 515 209 515.895 209 517Z" fill="#FAC798"/>
<path d="M194.689 515.795C194.183 516.808 193.241 517.274 192.585 516.835C191.929 516.396 191.806 515.219 192.311 514.205C192.817 513.192 193.759 512.726 194.415 513.165C195.071 513.604 195.194 514.781 194.689 515.795Z" fill="#FAC798"/>
<path d="M184.284 506.86C183.19 507.209 182.177 506.882 182.02 506.131C181.864 505.38 182.623 504.488 183.716 504.14C184.81 503.791 185.823 504.118 185.98 504.869C186.136 505.62 185.377 506.512 184.284 506.86Z" fill="#FAC798"/>
<path d="M147.144 398.872L172.559 329.404C174.626 323.756 180 320 186.014 320C196.617 320 203.575 331.122 198.997 340.686C190.893 357.616 179.664 381.494 172.38 398.703C171.585 400.582 172.36 402.723 174.03 403.894C194.68 418.371 209.937 461.085 213.433 472.546C213.76 473.617 213.107 474.72 212.02 474.987L185.092 481.608C184.167 481.836 183.209 481.378 182.804 480.515L147.414 405.016C146.509 403.086 146.412 400.874 147.144 398.872Z" fill="#F97600"/>
<circle cx="205" cy="318" r="2" fill="#DE5000"/>
<circle cx="204" cy="322" r="2" fill="#389810"/>
<circle cx="203" cy="326" r="2" fill="#FFB3DA"/>
<circle cx="203" cy="330" r="2" fill="#FECE00"/>
<circle cx="203" cy="334" r="2" fill="#FECE00"/>
<circle cx="203" cy="338" r="2" fill="#FECE00"/>
<circle cx="206" cy="352" r="2" fill="#6CBBD7"/>
<circle cx="207" cy="358" r="2" fill="#F23116"/>
<circle cx="213" cy="372" r="2" fill="#FFB3DA"/>
<circle cx="216" cy="375" r="2" fill="#FECE00"/>
<circle cx="220.5" cy="379.5" r="1.5" fill="#389810"/>
<circle cx="224" cy="381" r="2" fill="#FECE00"/>
<circle cx="228" cy="381" r="2" fill="#6CBBD7"/>
<circle cx="232" cy="381" r="2" fill="#FFB3DA"/>
<circle cx="235.5" cy="380.5" r="1.5" fill="#F23116"/>
<circle cx="247" cy="371" r="2" fill="#6CBBD7"/>
<circle cx="248" cy="367" r="2" fill="#F23116"/>
<circle cx="249" cy="363" r="2" fill="#FECE00"/>
<circle cx="249" cy="349" r="2" fill="#1570FF"/>
<circle cx="245" cy="331" r="2" fill="#6CBBD7"/>
<circle cx="244" cy="327" r="2" fill="#FECE00"/>
<circle cx="242" cy="323" r="2" fill="#FECE00"/>
<circle cx="240" cy="319" r="2" fill="#389810"/>
<circle cx="241" cy="378" r="4" fill="#FECE00"/>
<circle cx="205" cy="346" r="4" fill="#389810"/>
<circle cx="249" cy="355" r="4" fill="#FFB3DA"/>
<path d="M250.77 340.068C251.507 343.341 250.416 346.412 248.334 346.926C246.252 347.441 243.967 345.205 243.23 341.932C242.493 338.659 243.584 335.588 245.666 335.074C247.748 334.559 250.033 336.795 250.77 340.068Z" fill="#F23116"/>
<ellipse cx="209" cy="365.5" rx="4" ry="5.5" transform="rotate(-10.8539 209 365.5)" fill="#6CBBD7"/>
<ellipse cx="204" cy="341" rx="3" ry="1" fill="#1570FF"/>
<path d="M209.986 354.348C210.144 354.766 208.935 355.398 207.285 355.758C205.636 356.118 204.171 356.071 204.014 355.652C203.856 355.234 205.065 354.602 206.715 354.242C208.364 353.882 209.829 353.929 209.986 354.348Z" fill="#FFB3DA"/>
<ellipse cx="249" cy="360" rx="3" ry="1" fill="#389810"/>
<ellipse cx="246" cy="334" rx="3" ry="1" fill="#FFB3DA"/>
<path d="M220.845 375.155C221.369 375.679 220.52 377.377 218.948 378.948C217.377 380.52 215.679 381.369 215.155 380.845C214.631 380.321 215.48 378.623 217.052 377.052C218.623 375.48 220.321 374.631 220.845 375.155Z" fill="#6CBBD7"/>
<path d="M242.155 371.155C241.631 371.679 242.48 373.377 244.052 374.948C245.623 376.52 247.321 377.369 247.845 376.845C248.369 376.321 247.52 374.623 245.948 373.052C244.377 371.48 242.679 370.631 242.155 371.155Z" fill="#389810"/>
<circle cx="250" cy="291" r="2" fill="#F4B510"/>
<path d="M252 303.667C252 304.955 251.105 306 250 306C248.895 306 248 304.955 248 303.667C248 302.378 248.895 294 250 294C251.105 294 252 302.378 252 303.667Z" fill="#F4B510"/>
<path fill-rule="evenodd" clip-rule="evenodd" d="M221.5 250C209.074 250 199 260.074 199 272.5V273.5C199 274.224 199.034 274.939 199.101 275.646C199.307 277.821 197.185 280 195 280H194C184.611 280 177 287.611 177 297C177 306.389 184.611 314 194 314H195C204.389 314 212 306.389 212 297C212 295.654 213.438 294.556 214.721 294.961C216.861 295.636 219.138 296 221.5 296H227.5C239.926 296 250 285.926 250 273.5V272.5C250 260.074 239.926 250 227.5 250H221.5Z" fill="#9B4B35"/>
<path fill-rule="evenodd" clip-rule="evenodd" d="M212.57 272H221C225.239 272 229.062 269.451 230.692 265.538L231.333 264L231.607 264.82C233.036 269.108 237.048 272 241.568 272H247.653C248.255 273.429 248.673 274.996 248.87 276.703C249.045 278.217 249.232 279.742 249.809 281.153C250.426 282.664 251 284.068 251 286C251 291.008 249.748 295.671 247.532 299.582C246.845 300.795 246.206 302.058 245.565 303.326C244.396 305.64 243.219 307.968 241.727 310.029C239.547 313.041 236.002 315 232 315C231.529 315 231.064 314.973 230.606 314.92L233.294 324.925C234.659 330.007 230.83 335 225.568 335H223C214.163 335 207 327.837 207 319V296.108C206.918 295.912 206.839 295.715 206.762 295.516C205.984 293.506 204.155 292 202 292C199.791 292 198 290.209 198 288V285.062C198 280.96 203.438 279.516 205.473 283.078C206.087 284.152 207.493 284.277 208.041 283.168C208.655 281.924 209.232 280.351 209.868 278.621C210.63 276.544 211.476 274.239 212.57 272Z" fill="#D58E54"/>
<circle cx="203" cy="291" r="2" fill="#F4B510"/>
<path d="M205 303.667C205 304.955 204.105 306 203 306C201.895 306 201 304.955 201 303.667C201 302.378 201.895 294 203 294C204.105 294 205 302.378 205 303.667Z" fill="#F4B510"/>
<path d="M233 280L233.699 284.892C233.898 286.286 234.35 287.631 235.034 288.861L236.572 291.629C237.661 293.59 236.243 296 234 296V296" stroke="#1A2027" stroke-width="2"/>
<path d="M240 292C240 293.105 239.105 294 238 294L237 294" stroke="#1A2027" stroke-width="2"/>
<path d="M231 294C229.895 294 229 293.105 229 292" stroke="#1A2027" stroke-width="2"/>
<path d="M233.763 299.064L235.737 300.072C235.9 300.155 236.098 300.122 236.237 300.004C236.555 299.733 237.056 299.364 237.462 299.122C237.594 299.043 237.76 299.053 237.88 299.149C239.645 300.564 239.129 303.029 237.679 304.365C238.514 305.923 237.679 308 234.509 308C231.339 308 226.667 304.365 226 302.462C227.564 300.569 231.553 299.402 233.501 299.026C233.59 299.008 233.681 299.022 233.763 299.064Z" fill="#C61800"/>
<path d="M219 277C221.209 279.667 224.791 279.667 227 277" stroke="#1A2027" stroke-width="2"/>
<path d="M227 282C224.791 279.333 221.209 279.333 219 282C222.2 285.6 225.667 283.5 227 282Z" fill="white"/>
<path d="M247 282C244.791 279.333 241.209 279.333 239 282C242.2 285.6 245.667 283.5 247 282Z" fill="white"/>
<path d="M247 277C244.791 274.333 241.209 274.333 239 277" stroke="#1A2027" stroke-width="2"/>
<path d="M246 285C244.343 283.667 241.657 283.667 240 285" stroke="#1A2027" stroke-width="2"/>
<path d="M226 285C224.343 283.667 221.657 283.667 220 285" stroke="#1A2027" stroke-width="2"/>
<circle cx="223" cy="282" r="2" fill="#1A2027"/>
<circle cx="243" cy="282" r="2" fill="#1A2027"/>
</g>
<defs>
<clipPath id="clip0_77_328">
<rect width="761.023" height="710.564" fill="white"/>
</clipPath>
<clipPath id="clip1_77_328">
<rect width="185" height="189" fill="white" transform="translate(89)"/>
</clipPath>
<clipPath id="clip2_77_328">
<rect width="250" height="272" fill="white" transform="translate(88 423)"/>
</clipPath>
</defs>
</svg>
