<svg width="289" height="412" viewBox="0 0 289 412" fill="none" xmlns="http://www.w3.org/2000/svg">
<ellipse rx="88.7331" ry="85" transform="matrix(-1 0 0 1 200.267 327)" fill="#9DDEF4"/>
<path d="M52.0154 392H46.0492C43.5104 392 42.1945 388.971 43.9271 387.115C49.6108 381.028 52.4065 372.793 51.6036 364.503L49.4723 342.5H79.6678C78.2046 351.904 76.669 361.138 75.4563 369.5C74.7095 374.65 72.0971 379.364 68.0401 382.623L59.7587 389.275C57.5632 391.039 54.8315 392 52.0154 392Z" fill="#DD9E86"/>
<path d="M163.367 253H87.8665L84.4667 323.91C84.401 325.28 84.6887 326.644 85.3021 327.871L87.2046 331.676C88.7845 334.836 88.1047 338.658 85.5321 341.079L82.6251 343.815C81.8219 344.571 81.3665 345.625 81.3665 346.728V349C81.3665 351.209 79.5757 353 77.3665 353H50.8665C48.6574 353 46.8665 351.209 46.8665 349V346.611C46.8665 345.577 46.4663 344.584 45.7498 343.839L36.9719 334.71C35.3215 332.993 34.5215 330.631 34.7894 328.265L40.2903 279.673C40.341 279.225 40.3538 278.774 40.3284 278.323L38.9365 253.617C38.5635 246.997 39.9979 240.4 43.0861 234.533C49.4083 222.521 61.8652 215 75.4395 215H163.367V253Z" fill="#1570FF"/>
<path d="M107.365 391.5C97.3957 391.5 104.718 381.412 106.328 368.9C107.516 359.664 104.959 350.156 102.494 341.177C102.121 339.818 101.711 338.423 101.271 337H130.664C130.507 350.739 129.866 362.031 129.867 365.5C129.366 394 114.365 391.5 107.365 391.5Z" fill="#DD9E86"/>
<path d="M84.3665 395.809C84.3665 390.617 83.8274 385.439 82.7577 380.358L80.7716 370.924C79.5077 364.921 73.1854 361.46 67.4472 363.632L62.2557 365.596C61.0408 366.056 59.7169 365.253 59.5622 363.964L59.2121 361.047C58.7296 357.026 55.3187 354 51.2691 354H47.8825C44.3194 354 41.1857 356.357 40.1968 359.78L37.1261 370.409C36.0251 374.22 33.112 377.241 29.3434 378.479L5.8693 386.192C2.58591 387.271 0.366516 390.336 0.366516 393.792V405C0.366516 407.209 2.15738 409 4.36652 409H80.3665C82.5757 409 84.3665 407.209 84.3665 405V395.809Z" fill="#288202"/>
<path d="M84.3665 399H6.36652C5.26195 399 4.36652 399.895 4.36652 401V403C4.36652 404.105 5.26195 405 6.36652 405H84.3665V399Z" fill="white"/>
<path d="M31.2237 375.5L40.3665 381.5L28.3665 377.5L34.6522 384.5" stroke="#E379F8" stroke-width="2" stroke-linejoin="bevel"/>
<path fill-rule="evenodd" clip-rule="evenodd" d="M79.3049 253H163.367V218.5H86.5484C73.5381 218.5 61.602 225.718 55.5596 237.24C51.8333 244.346 50.6621 252.516 52.2423 260.383L58.707 292.565L68.9338 326.958C69.1651 327.735 69.5516 328.458 70.0701 329.082L78.3333 339.027C79.6454 336.665 79.7078 333.724 78.3299 331.249L76.5297 328.015C75.7968 326.698 75.4506 325.202 75.5309 323.697L79.3049 253Z" fill="#105ACD"/>
<path d="M134.367 388L132.216 367.748C131.883 364.617 127.974 363.392 125.914 365.774C125.6 366.137 125.025 366.097 124.764 365.693L119.577 357.66C118.103 355.378 115.573 354 112.856 354H106.566C103.01 354 99.8805 356.347 98.8854 359.761L95.1435 372.598C94.4059 375.129 92.8554 377.346 90.7318 378.908L81.6273 385.602C79.5772 387.11 78.3665 389.503 78.3665 392.047V405C78.3665 407.209 80.1574 409 82.3665 409H130.367C132.576 409 134.367 407.209 134.367 405V388Z" fill="#288202"/>
<path d="M134.367 399H117.367C116.262 399 115.367 399.895 115.367 401V403C115.367 404.105 116.262 405 117.367 405H134.367V399Z" fill="white"/>
<path d="M95.3665 375.5L112.867 379.5H92.8665L106.367 383.5" stroke="#E379F8" stroke-width="2" stroke-linejoin="bevel"/>
<path d="M127.884 274.858L140.157 309.378C141.338 312.7 141.389 316.318 140.303 319.671L132.461 343.868C132.332 344.266 132.266 344.682 132.266 345.101V349C132.266 351.209 130.475 353 128.266 353H102.527C100.318 353 98.527 351.209 98.527 349V345.789C98.527 344.932 98.2514 344.097 97.741 343.408L86.9424 328.832C86.4904 328.222 86.1584 327.532 85.9638 326.798L76.5456 291.276L70.3491 256.68C69.0591 249.478 70.0304 242.053 73.1296 235.424C78.9567 222.963 91.4701 215 105.227 215H201.367C203.576 215 205.367 216.791 205.367 219V238.178C205.367 252.538 193.726 264.178 179.367 264.178H135.422C129.894 264.178 126.032 269.65 127.884 274.858Z" fill="#1570FF"/>
<path d="M78.9862 123.537C76.48 119.34 75.762 114.242 77.4132 109.636L78.9973 105.216C79.3434 104.251 79.4387 103.213 79.2742 102.2L77.4072 90.7025C77.2064 89.4658 76.6274 88.323 75.7509 87.4331L71.1343 82.7463C70.0311 81.6264 68.1339 82.1641 67.773 83.6989L67.476 84.9623C67.1102 86.5179 67.3736 88.1557 68.208 89.5155L69.3738 91.415C69.5518 91.7051 69.6867 92.0198 69.7744 92.3492L69.9467 92.9966C70.3489 94.508 69.4572 96.0617 67.955 96.4669C66.7172 96.8009 65.4117 96.2518 64.7785 95.1311L60.7344 87.9726C60.2465 87.1091 59.9785 86.1375 59.954 85.1444L59.6682 73.5404C59.6423 72.4879 58.8199 71.6308 57.7753 71.5679C56.9821 71.5201 56.2349 71.946 55.8676 72.6553L53.2116 77.7854C52.8845 78.4172 52.4452 78.9835 51.9154 79.4562C50.82 80.4336 50.1322 81.7916 49.9903 83.2576L49.9288 83.8922C49.8434 84.7735 49.4849 85.6057 48.9038 86.2709L48.4432 86.7981C47.8046 87.5293 47.5712 88.5332 47.8214 89.4732L47.8728 89.6663C48.076 90.4297 47.91 91.245 47.4249 91.8668C46.9398 92.4886 46.7738 93.3038 46.977 94.0673L47.937 97.6745C48.1122 98.3329 48.4374 98.9411 48.8868 99.451C49.4086 100.043 49.7624 100.77 49.9092 101.548C51.4308 109.609 53.7881 117.53 56.9277 125.102C90.4479 215.442 113.938 182.06 78.9862 123.537Z" fill="#DD9E86"/>
<path d="M69.7509 86.6543C70.4882 87.7593 71.6832 88.2567 72.4199 87.7651C73.1566 87.2735 73.1561 85.9792 72.4187 84.8742C71.6814 83.7691 70.4864 83.2718 69.7497 83.7633C69.013 84.2549 69.0135 85.5492 69.7509 86.6543Z" fill="#FAC798"/>
<path d="M131.46 116L148.238 127.569C156.123 133.006 157.497 144.106 151.176 151.301L100.76 208.69C97.1636 212.784 90.6159 212.163 87.8538 207.465L52.7609 147.785C51.3999 145.471 51.7424 142.534 53.5995 140.594L79.3161 113.739C80.3211 112.689 82.0744 113.028 82.6163 114.376L97.7269 151.968C99.1349 155.471 104.166 155.253 105.265 151.641L108.96 139.5L131.46 116Z" fill="#FEDF92"/>
<path fill-rule="evenodd" clip-rule="evenodd" d="M99.8615 154.166L82.1685 197.797L87.8538 207.465C90.6159 212.163 97.1636 212.784 100.76 208.69L151.176 151.301C157.497 144.106 156.123 133.006 148.238 127.569L131.46 116L108.96 139.5L105.265 151.641C104.507 154.131 101.881 155.008 99.8615 154.166Z" fill="#FEDF92"/>
<path d="M188.96 112L146.283 111.717C127.239 111.591 110.747 124.908 106.86 143.551L93.9603 205.408C92.9271 210.363 96.6968 215.02 101.758 215.041L205.523 215.479C208.066 215.49 209.973 213.156 209.456 210.666L188.96 112Z" fill="#FEDF92"/>
<path d="M180.872 251.999L202.113 234L221.014 251.263L221.024 251.414C221.363 256.681 218.256 261.563 213.34 263.483C212.895 263.657 212.535 263.994 212.331 264.425L210.458 268.4C210.218 268.91 210.203 269.496 210.418 270.016L212.71 275.568C213.014 276.304 212.852 277.15 212.299 277.722L212.018 278.012C211.148 278.912 209.674 278.801 208.95 277.78L203.299 269.822C202.924 269.294 202.828 268.618 203.042 268.006L203.978 265.318C204.182 264.733 203.35 264.373 203.063 264.922L200.835 269.181C200.715 269.411 200.64 269.663 200.616 269.921L199.648 280.209C199.528 281.477 198.271 282.312 197.056 281.929L196.394 281.721C195.573 281.462 195.009 280.708 194.995 279.847L194.782 267.19C194.776 266.876 194.845 266.566 194.982 266.284L197.746 260.582C197.988 260.082 197.357 259.619 196.953 259.999L190.828 265.76C190.65 265.926 190.505 266.124 190.399 266.343L185.734 275.943C185.111 277.225 183.385 277.462 182.439 276.396L182.055 275.963C181.575 275.422 181.425 274.664 181.662 273.981L185.49 262.936C185.571 262.7 185.697 262.481 185.858 262.292L192.731 254.243C193.092 253.82 192.595 253.211 192.108 253.481L184.648 257.622C184.439 257.738 184.253 257.891 184.098 258.072L177.511 265.787C176.547 266.916 174.734 266.639 174.151 265.274L173.864 264.604C173.607 264.001 173.661 263.31 174.01 262.755L180.471 252.462C180.581 252.288 180.716 252.132 180.872 251.999Z" fill="#DD9E86"/>
<path d="M174.636 262.592C174.084 263.549 174.218 264.66 174.935 265.074C175.653 265.488 176.682 265.049 177.234 264.092C177.786 263.135 177.653 262.024 176.935 261.61C176.218 261.196 175.188 261.635 174.636 262.592Z" fill="#FAC798"/>
<path d="M182.528 272.922C181.976 273.879 182.11 274.99 182.827 275.404C183.545 275.818 184.574 275.379 185.126 274.422C185.679 273.466 185.545 272.354 184.827 271.94C184.11 271.526 183.081 271.966 182.528 272.922Z" fill="#FAC798"/>
<path d="M195.525 279.034C195.456 280.164 196.039 281.038 196.827 280.987C197.615 280.935 198.309 279.977 198.378 278.846C198.447 277.716 197.865 276.842 197.077 276.894C196.289 276.945 195.594 277.904 195.525 279.034Z" fill="#FAC798"/>
<path d="M209.003 276.499C209.776 277.348 210.816 277.571 211.328 276.999C211.839 276.427 211.627 275.275 210.855 274.427C210.082 273.578 209.042 273.354 208.53 273.927C208.019 274.499 208.231 275.651 209.003 276.499Z" fill="#FAC798"/>
<path fill-rule="evenodd" clip-rule="evenodd" d="M183.369 215.38L206.958 215.479C208.166 215.484 209.231 214.96 209.96 214.142L204.396 184.5L195.18 135.408C188.732 140.344 183.519 150.249 180.688 162.945C177.857 175.641 177.64 190.088 180.084 203.108C180.911 207.514 182.02 211.635 183.369 215.38Z" fill="#FEDF92"/>
<path d="M168.96 112H205.826C210.937 112 215.741 114.442 218.753 118.572L262.931 179.15C273.187 193.213 273.706 212.144 264.237 226.748L245.726 255.295C241.659 261.567 233.382 263.538 226.925 259.771L197.118 242.384C193.286 240.148 191.655 235.454 193.274 231.324L208.236 193.17C209.645 189.578 209.385 185.544 207.526 182.162L168.96 112Z" fill="#FEDF92"/>
<path d="M153.531 38.2476C138.226 39.7252 125.714 47.2945 135.325 57.1579C145.085 67.1733 142.296 76.4203 159.75 78.8813C169.957 80.3205 189.848 83.3141 189.848 65.2136C189.848 60.4115 191.934 45.9827 178.098 48.2214C175.603 40.226 166.032 37.0408 153.531 38.2476Z" fill="#1A2027"/>
<path fill-rule="evenodd" clip-rule="evenodd" d="M132.073 90.5817C129.858 86.6712 128.606 82.0075 128.606 77C128.606 75.0678 129.179 73.6638 129.797 72.1527C130.374 70.7415 130.58 69.2194 130.669 67.6976C131.258 57.6358 135.954 55.2036 145.606 55.2036H155.207C158.465 55.2036 161.106 57.8443 161.106 61.1018V64.25C161.106 65.7688 162.337 67 163.856 67C165.374 67 166.606 68.2312 166.606 69.75V73.2937C166.606 75.3406 168.265 77 170.312 77C171.642 77 172.87 76.2873 173.53 75.1325L174.133 74.0777C176.168 70.5163 181.606 71.9604 181.606 76.0622V79C181.606 81.2091 179.815 83 177.606 83C175.45 83 173.621 84.5064 172.843 86.5161C172.766 86.7147 172.687 86.9119 172.606 87.1078V110C172.606 118.837 165.442 126 156.606 126H154.038C148.776 126 144.947 121.007 146.312 115.925L148.999 105.92C148.542 105.973 148.077 106 147.606 106C143.603 106 140.059 104.041 137.879 101.029C136.387 98.9683 135.21 96.6399 134.04 94.3259C133.399 93.058 132.761 91.7945 132.073 90.5817Z" fill="#DD9E86"/>
<path d="M143.49 75L142.791 79.8919C142.592 81.2855 142.14 82.6309 141.456 83.8615L139.918 86.6292C138.829 88.5902 140.247 91 142.49 91V91" stroke="#1A2027" stroke-width="2"/>
<path d="M136.49 87C136.49 88.1046 137.385 89 138.49 89L139.49 89" stroke="#1A2027" stroke-width="2"/>
<path d="M145.49 89C146.595 89 147.49 88.1046 147.49 87" stroke="#1A2027" stroke-width="2"/>
<path d="M140.49 97.6473C144.51 100.21 149.435 99.0244 151.49 95" stroke="#1A2027" stroke-width="2"/>
<path d="M147.49 78C147.49 79.6569 148.833 81 150.49 81" stroke="#1A2027" stroke-width="2"/>
<path d="M139.49 78C139.49 79.6569 138.147 81 136.49 81" stroke="#1A2027" stroke-width="2"/>
<path d="M159.49 75C156.176 71 150.804 71 147.49 75" stroke="#1A2027" stroke-width="2"/>
<path d="M127.49 75C130.804 71 136.176 71 139.49 75" stroke="#1A2027" stroke-width="2"/>
<path d="M149.49 77C151.699 74.3333 155.281 74.3333 157.49 77C154.29 80.6 150.823 78.5 149.49 77Z" fill="white"/>
<path d="M129.49 77C131.699 74.3333 135.281 74.3333 137.49 77C134.29 80.6 130.823 78.5 129.49 77Z" fill="white"/>
<circle r="2" transform="matrix(-1 0 0 1 153.49 77)" fill="#1A2027"/>
<circle r="2" transform="matrix(-1 0 0 1 133.49 77)" fill="#1A2027"/>
<path fill-rule="evenodd" clip-rule="evenodd" d="M143.052 93.5083C142.123 93.2016 141.063 93 140.154 93C138.013 93 133.731 95.3547 132.952 101.634C132.959 101.634 132.967 101.635 132.974 101.635C132.802 103.209 133.407 113 144.357 113C152.812 113 154.54 107.083 154.357 101.633C154.359 101.634 154.36 101.634 154.362 101.634C154.536 98.306 152.066 91.65 146.972 93.4588C145.75 93.8928 144.285 93.9147 143.052 93.5083ZM152.655 101.291C151.264 100.866 149.889 100.125 148.67 99.3682C146.355 97.9318 143.647 97.8851 141.254 99.1953C139.595 100.103 137.637 101.011 135.634 101.423C136.174 101.793 136.599 102.401 137.019 103.003C137.588 103.817 138.149 104.619 138.976 104.806C140.379 104.806 141.233 104.138 142.342 103.206C143.325 102.379 144.311 101.551 145.334 101.551C146.357 101.551 147.414 102.43 148.276 103.228C149.074 103.966 149.798 104.636 150.521 104.478C151.149 104.342 151.486 103.579 151.843 102.771C152.076 102.243 152.318 101.695 152.655 101.291Z" fill="#1A2027"/>
</svg>
