<svg width="125" height="124" viewBox="0 0 125 124" fill="none" xmlns="http://www.w3.org/2000/svg">
<g clip-path="url(#clip0_87_836)">
<path d="M70.3192 124C108.856 124 140.097 96.2417 140.097 62C140.097 27.7583 108.856 0 70.3192 0C31.7819 0 0.541321 27.7583 0.541321 62C0.541321 96.2417 31.7819 124 70.3192 124Z" fill="#F0F0F0"/>
<path d="M124.541 62.0001C124.541 35.3423 107.716 12.6166 84.1064 3.85645V120.144C107.716 111.384 124.541 88.6579 124.541 62.0001Z" fill="#D80027"/>
<path d="M0.541321 62.0001C0.541321 88.6579 17.3668 111.384 40.9762 120.144V3.85645C17.3668 12.6166 0.541321 35.3423 0.541321 62.0001Z" fill="#0052B4"/>
</g>
<defs>
<clipPath id="clip0_87_836">
<path d="M0.541321 62C0.541321 27.7583 28.2997 0 62.5413 0V0C96.783 0 124.541 27.7583 124.541 62V62C124.541 96.2417 96.783 124 62.5413 124V124C28.2997 124 0.541321 96.2417 0.541321 62V62Z" fill="white"/>
</clipPath>
</defs>
</svg>
