<svg width="124" height="124" viewBox="0 0 124 124" fill="none" xmlns="http://www.w3.org/2000/svg">
<path d="M3.85635 83.5652C12.6165 107.175 35.3422 124 62 124C88.6578 124 111.383 107.175 120.144 83.5652L62 78.1741L3.85635 83.5652Z" fill="#FFDA44"/>
<path d="M62 0C35.3422 0 12.6165 16.8253 3.85635 40.4349L62 45.826L120.144 40.4347C111.383 16.8252 88.6578 0 62 0Z" fill="black"/>
<path d="M3.85635 40.4348C1.36424 47.1514 0 54.4161 0 61.9999C0 69.5838 1.36424 76.8484 3.85635 83.565H120.144C122.636 76.8484 124 69.5838 124 61.9999C124 54.4161 122.636 47.1514 120.144 40.4348H3.85635Z" fill="#D80027"/>
</svg>
