<svg width="685" height="615" viewBox="0 0 685 615" fill="none" xmlns="http://www.w3.org/2000/svg">
<g clip-path="url(#clip0_214_829)">
<path d="M631.913 446.261C631.913 493.496 584.94 526.342 540.574 510.131L365.821 446.275C350.749 440.768 334.214 440.768 319.142 446.276L144.428 510.126C100.063 526.339 53.0875 493.493 53.0875 446.257L53.0875 172.557C53.0875 124.282 101.987 91.3803 146.705 109.566L316.866 178.769C333.29 185.448 351.673 185.448 368.097 178.77L538.298 109.56C583.016 91.3767 631.913 124.278 631.913 172.552L631.913 446.261Z" fill="#FEEBF5"/>
<path fill-rule="evenodd" clip-rule="evenodd" d="M354.285 0.229887C387.846 7.35364 396.765 44.5191 398.194 63.5886C402.217 72.9631 407.65 92.5695 412.309 123.291C423.793 104.997 466.75 51.1964 487.481 85.488C498.33 103.434 455.89 119.778 413.766 133.47C415.616 147.169 417.298 162.824 418.653 180.512C430.814 164.52 455.454 141.912 485.428 151.66C502.464 157.201 452.85 197.651 419.713 195.896C420.664 211.37 421.365 228.231 421.725 246.522C440.469 218.837 495.349 154.423 522.493 198.891C537.333 223.204 479.585 245.355 421.96 263.936C421.986 267.55 422 271.215 422 274.931C422 286.43 421.87 297.83 421.626 309.087C438.294 284.911 477.728 243.941 526.493 259.891C553.14 268.607 452.446 335.162 421.15 326.762C420.601 343.825 419.807 360.493 418.832 376.603C452.66 318.672 522.508 311.962 517.165 337.34C505.938 390.672 444.353 402.772 416.978 403.871C415.489 423.62 413.764 442.295 411.937 459.551C457.07 420.46 515.864 383.302 510.359 409.449C499.125 462.814 437.471 474.896 410.122 475.982C405.815 513.351 401.208 542.664 397.928 559.754L390.072 558.246C393.595 539.885 398.689 507.124 403.272 465.299C332.216 464.789 276.859 405.734 298.904 387.891C344.656 350.86 390.113 414.603 405.855 440.099C407.949 418.157 409.829 394.315 411.253 369.186C352.842 349.959 281.355 312.575 307.904 303.891C356.06 288.14 395.116 327.896 412.136 352.174C413.019 333.42 413.631 314.053 413.878 294.311C368.069 279.531 311.607 250.493 332.465 243.768C370.106 231.633 400.643 262.211 413.988 280.946C413.996 278.944 414 276.939 414 274.931C414 263.157 413.863 251.907 413.607 241.172C356.077 222.609 298.544 200.491 313.36 176.218C339.986 132.599 393.301 193.747 413.016 222.227C412.134 199.462 410.713 179.278 408.971 161.567C381.743 160.542 319.761 148.546 308.494 95.0248C302.883 68.3741 370.168 95.9516 406.861 142.469C406.274 137.704 405.665 133.159 405.041 128.831C403.714 119.627 402.319 111.423 400.916 104.185C355.128 101.885 317.657 66.2908 334.969 60.6604C360.821 52.2525 382.705 67.9138 396.037 82.6403C395.017 78.8253 394.033 75.5475 393.11 72.7923C365.673 42.5544 335.986 -3.65428 354.285 0.229887Z" fill="#5BC0C9"/>
<path d="M347 568C347 560.268 353.268 554 361 554H433C440.732 554 447 560.268 447 568V738H347V568Z" fill="#FFF0CA"/>
<path d="M220.282 44.186C199.342 9.54752 155.723 64.7925 144.771 82.5333C144.249 83.3795 144 84.3366 144 85.3311C144 89.1196 147.693 91.8091 151.291 90.6215C191.791 77.2511 230.725 61.4607 220.282 44.186Z" fill="#5BC0C9"/>
<path d="M87.1746 187.809C85.3052 223.286 121.388 241.578 138.87 247.248C140.535 247.788 142.326 247.568 143.861 246.727C146.138 245.48 147.535 243.021 147.04 240.473C140.711 207.866 88.1234 169.803 87.1746 187.809Z" fill="#5BC0C9"/>
<path d="M187.466 121.769C228.047 108.685 260.371 145.25 271.797 163.094C272.588 164.33 272.803 165.831 272.452 167.256C271.686 170.367 268.458 172.191 265.419 171.175C220.291 156.091 167.129 128.325 187.466 121.769Z" fill="#5BC0C9"/>
<path fill-rule="evenodd" clip-rule="evenodd" d="M85.9751 310.46C88.4968 298.126 89.3461 266.773 72.5691 240.028C60.8702 255.649 68.0203 296.477 85.9751 310.46ZM116.855 262.023C116.217 272.57 110.085 298.176 90.6636 316.221C84.5761 301.016 99.255 269.465 116.855 262.023ZM97.8875 330.082C100.583 317.785 112.52 288.774 138.705 271.107C143.067 290.121 119.974 324.559 97.8875 330.082ZM165.338 291.702C152.098 297.067 121.16 316.104 103.331 349.337C124.261 350.8 160.508 317.994 165.338 291.702ZM85.7748 372.616C75.9173 362.285 46.8281 340.535 9.33072 336.173C15.6515 356.153 59.514 377.781 85.7748 372.616ZM83.6751 387.699C71.2822 380.596 37.1989 368.01 0.00854492 374.482C11.7599 391.841 59.9711 400.113 83.6751 387.699ZM170.23 485.149C161.239 474.957 134.027 452.34 97.1021 443.413C101.825 461.358 143.729 485.92 170.23 485.149ZM94.0071 459.986C103.774 464.593 125.747 480.116 135.499 505.347C118.76 505.338 94.3895 479.469 94.0071 459.986ZM84.0926 464.233C72.7599 473.02 40.6109 490.295 2.67628 489.096C11.9214 470.224 58.7432 455.246 84.0926 464.233ZM98.7505 399.85C112.903 397.885 149.227 398.923 181.305 418.8C163.912 430.519 116.096 420.208 98.7505 399.85ZM98.3018 379.498C111.852 374.97 147.749 369.328 182.936 382.983C167.995 397.693 119.096 396.327 98.3018 379.498ZM181.623 344.13C169.795 352.135 136.747 367.225 99.1765 363.54C109.599 345.355 157.059 333.516 181.623 344.13ZM85.0319 445.756C72.8422 453.201 39.1236 466.732 1.76698 461.297C13.0291 443.618 60.9905 434.007 85.0319 445.756ZM88.5269 426.955C74.832 433.696 38.3096 444.323 1.77849 432.909C9.08565 423.738 25.0931 418.088 42.0474 416.762C28.4833 416.469 15.5955 412.787 9.23335 405.895C38.6276 394.31 69.3375 400.875 81.0182 405.605C73.952 411.853 62.6846 415.436 50.9701 416.467C65.3172 416.642 79.3764 419.979 88.5269 426.955ZM95.8759 421.371C111.138 420.968 148.764 426.568 177.167 452.194C156.043 462.836 108.79 445.708 95.8759 421.371ZM16.5317 312.851C24.8184 322.336 49.2583 342.034 80.7242 344.942C75.389 326.177 38.5552 307.081 16.5317 312.851ZM82.5784 324.029C78.2418 312.209 62.4844 285.078 34.1473 271.111C32.4009 290.54 59.9466 321.541 82.5784 324.029Z" fill="#FBCCE4"/>
<path d="M79.857 279.537C82.4264 290.847 85.2013 305.636 87.5951 322.507M76.9211 509.297C82.8075 495.968 86.8901 480.648 89.5656 464.28M87.5951 322.507C90.6919 312.861 97.8837 292.749 101.877 289.475M87.5951 322.507C87.935 324.902 88.2672 327.34 88.59 329.815M88.59 329.815C81.9601 324.164 68.1132 312.276 65.7645 309.938C62.8285 307.014 51.6719 292.106 48.1488 292.106M88.59 329.815C89.2325 334.742 89.8379 339.819 90.3931 345.015M90.3931 345.015C97.3526 331.861 115.03 302.337 130.062 289.475M90.3931 345.015C90.7118 347.999 91.0139 351.021 91.2969 354.077M91.2969 354.077C84.9391 347.646 64.6488 331.627 34.3499 318.999M91.2969 354.077C91.4495 355.724 91.5965 357.381 91.7375 359.047M91.7375 359.047C98.3468 354.662 114.031 343.554 123.896 334.2C133.761 324.846 149.732 310.814 156.485 304.968M91.7375 359.047C92.1366 363.758 92.4881 368.54 92.7832 373.37M92.7832 373.37C86.2236 372.688 70.9317 370.096 62.2413 365.185C51.3783 359.047 34.3499 350.277 27.8908 349.4M92.7832 373.37C92.8841 375.021 92.9784 376.678 93.0657 378.339M92.7832 367.524C103.839 360.313 134.231 346.243 167.348 347.646M93.0657 378.339C98.4493 379.022 111.506 381.204 120.667 384.478C129.827 387.752 157.366 384.478 169.99 382.432M93.0657 378.339C93.2744 382.311 93.4434 386.309 93.5679 390.324M93.5679 390.324C85.8659 388.376 67.7609 384.478 56.9566 384.478C46.1524 384.478 26.2271 380.386 17.615 378.339M93.5679 390.324C93.6433 392.755 93.7023 395.192 93.744 397.632M93.7993 410.202C79.1697 407.279 44.978 403.186 25.2484 410.202M93.7993 410.202C93.8357 406.011 93.8154 401.817 93.744 397.632M93.7993 410.202C93.7739 413.128 93.721 416.053 93.6386 418.971M93.744 397.632C105.361 403.186 135.757 414.411 164.412 414.879M93.6386 418.971C96.1889 422.284 104.754 429.495 118.611 431.833C135.934 434.756 147.971 445.28 160.889 447.911M93.6386 418.971C93.531 422.785 93.3731 426.588 93.1609 430.372M93.1609 430.372C89.8027 427.643 79.6221 423.005 65.7645 426.279C51.9068 429.553 29.8481 429.397 20.5509 428.91M93.1609 430.372C92.9906 433.407 92.7854 436.429 92.5431 439.433M92.1065 444.403C77.4539 444.695 43.2164 447.677 23.4869 457.265M92.1065 444.403C92.2636 442.752 92.409 441.096 92.5431 439.433M92.1065 444.403C91.6936 448.739 91.2 453.031 90.6189 457.265M92.5431 439.433C104.071 449.372 131.412 470.594 148.558 475.973M90.6189 457.265C90.2953 459.623 89.9445 461.962 89.5656 464.28M90.6189 457.265C95.0793 460.177 107.9 471.7 123.5 494.5M89.5656 464.28C77.0322 463.598 45.6826 466.151 20.5509 481.819" stroke="#FFB3DA" stroke-width="4" stroke-linejoin="round"/>
<rect x="28" y="508" width="104" height="14" fill="#FEDF92"/>
<path d="M33 522H127L117 646H43L33 522Z" fill="#FEDF92"/>
<path d="M385 452.5C419.4 443.7 459.667 451.5 475.5 456.5C440 441 407.5 414.5 390.5 403C434 405 459.5 417.5 492 443C468.4 423 437.833 369.667 425.5 345.5C439.167 352.333 474.1 376.6 504.5 419C482.5 375 484.333 337 488 323.5C492 340 524.5 394 529.5 434C529.5 381.5 543.5 324 545 318C557.5 334.5 551.5 417 548 440C560 379.2 604.333 351 625.5 338C620.5 344 608.7 362 601.5 386C594.3 410 574.667 434.167 562.5 451.5C569.667 446.833 580 428.5 601.5 413C623.645 397.035 654.833 391 672 386C659.167 395.333 634.9 420.7 620.5 441.5C606.1 462.3 584 464.5 567.5 470.5C579.667 469.667 591.7 476.2 620.5 469C649.3 461.8 674.167 469.5 683 472.5C664.833 482.667 620.9 503 590.5 503C560.1 503 538.833 494 532 489.5C518.833 496 487.4 509 467 509C441.5 509 405 500.5 386.5 503C403.5 491.5 430 483.5 479.5 482.5C445.5 481 402.5 466 385 452.5Z" fill="#C8F9B4"/>
<path d="M530.5 486L565.574 516.75H495.426L530.5 486Z" fill="#FBCCE4"/>
<path d="M530.5 516L565.574 546.75H495.426L530.5 516Z" fill="#FBCCE4"/>
<path d="M530.5 546L565.574 576.75H495.426L530.5 546Z" fill="#FBCCE4"/>
<path d="M596 574C596 591.239 589.152 607.772 576.962 619.962C564.772 632.152 548.239 639 531 639C513.761 639 497.228 632.152 485.038 619.962C472.848 607.772 466 591.239 466 574L531 574H596Z" fill="#FEDF92"/>
<path d="M264 522.5C264 498.783 267.338 476.846 273 459C278.662 476.846 282 498.783 282 522.5C282 539.756 280.233 556.07 277.089 570.551C281.604 556.587 288.174 541.757 296.698 526.993C308.557 506.454 322.416 489.124 336.242 476.5C332.223 494.786 324.145 515.454 312.287 535.993C305.363 547.985 297.758 558.882 289.875 568.388C299.315 560.587 310.117 553.062 321.993 546.206C342.532 534.347 363.199 526.269 381.485 522.25C368.861 536.077 351.532 549.936 330.993 561.794C319.192 568.607 307.349 574.173 295.94 578.437C308.468 576.22 322.159 575 336.5 575C360.217 575 382.154 578.338 400 584C382.154 589.662 360.217 593 336.5 593C313.915 593 292.944 589.973 275.583 584.795C275.124 584.909 274.666 585.02 274.209 585.129L274.055 585.273C274.202 585.432 274.347 585.591 274.493 585.75C274.238 585.694 273.982 585.637 273.726 585.579C273.551 585.742 273.376 585.904 273.201 586.065C273.232 586.205 273.263 586.345 273.294 586.485C273.241 586.437 273.187 586.388 273.134 586.339C273.095 586.304 273.057 586.268 273.018 586.233C272.926 586.317 272.834 586.401 272.742 586.485C272.773 586.345 272.804 586.205 272.836 586.065C272.658 585.901 272.48 585.737 272.302 585.571C272.034 585.632 271.767 585.691 271.5 585.75C271.652 585.584 271.805 585.417 271.958 585.251L271.935 585.229C254.868 590.142 234.446 593 212.5 593C188.783 593 166.846 589.662 149 584C166.846 578.338 188.783 575 212.5 575C224.852 575 236.721 575.905 247.781 577.573C237.075 573.43 226.019 568.156 215 561.794C194.461 549.936 177.131 536.077 164.507 522.25C182.793 526.269 203.461 534.347 224 546.206C235.934 553.096 246.785 560.662 256.258 568.504C248.341 558.971 240.702 548.033 233.75 535.993C221.892 515.454 213.813 494.786 209.794 476.5C223.621 489.124 237.48 506.454 249.338 526.993C257.793 541.637 264.327 556.347 268.837 570.213C265.74 555.816 264 539.621 264 522.5Z" fill="#C8F9B4"/>
<path d="M265 586C265 581.582 268.582 578 273 578V578C277.418 578 281 581.582 281 586V699H265V586Z" fill="#FBCCE4"/>
</g>
<defs>
<clipPath id="clip0_214_829">
<rect width="685" height="615" fill="white"/>
</clipPath>
</defs>
</svg>
