<svg width="1046" height="800" viewBox="0 0 1046 800" fill="none" xmlns="http://www.w3.org/2000/svg">
<g clip-path="url(#clip0_98_547)">
<path d="M962.998 615.254C962.998 660.909 918.9 693.594 875.219 680.314L530.251 575.44C517.356 571.519 503.586 571.52 490.691 575.441L145.784 680.31C102.102 693.591 58.0025 660.907 58.0025 615.251L58.0025 187.795C58.0025 141.252 103.709 108.465 147.797 123.382L488.678 238.722C502.813 243.504 518.129 243.505 532.264 238.723L873.206 123.378C917.293 108.462 962.998 141.249 962.998 187.791L962.998 615.254Z" fill="#FEEBF5"/>
<path fill-rule="evenodd" clip-rule="evenodd" d="M715.285 0.229888C748.846 7.35364 757.765 44.5191 759.194 63.5886C763.217 72.9632 768.65 92.5695 773.309 123.291C784.793 104.997 827.75 51.1964 848.481 85.488C859.33 103.434 816.89 119.778 774.766 133.47C776.616 147.169 778.298 162.824 779.653 180.512C791.814 164.52 816.454 141.912 846.428 151.66C863.464 157.201 813.85 197.651 780.713 195.896C781.664 211.37 782.365 228.231 782.725 246.522C801.469 218.837 856.349 154.423 883.493 198.891C898.333 223.204 840.585 245.355 782.96 263.936C782.986 267.55 783 271.215 783 274.931C783 286.43 782.87 297.83 782.626 309.087C799.294 284.911 838.728 243.941 887.493 259.891C914.14 268.607 813.446 335.162 782.15 326.762C781.601 343.825 780.807 360.493 779.832 376.603C813.66 318.672 883.508 311.962 878.165 337.34C866.938 390.672 805.353 402.772 777.978 403.871C776.489 423.62 774.764 442.295 772.937 459.551C818.07 420.46 876.864 383.302 871.359 409.449C860.125 462.814 798.471 474.896 771.122 475.982C766.815 513.351 762.208 542.664 758.928 559.754L751.072 558.246C754.595 539.885 759.689 507.124 764.272 465.299C693.216 464.789 637.859 405.734 659.904 387.891C705.656 350.86 751.113 414.603 766.855 440.099C768.949 418.157 770.829 394.315 772.253 369.186C713.842 349.959 642.355 312.575 668.904 303.891C717.06 288.14 756.116 327.896 773.136 352.174C774.019 333.42 774.631 314.053 774.878 294.311C729.069 279.531 672.607 250.493 693.466 243.768C731.106 231.633 761.643 262.211 774.988 280.946C774.996 278.944 775 276.939 775 274.931C775 263.157 774.863 251.907 774.607 241.172C717.077 222.609 659.544 200.491 674.36 176.218C700.986 132.599 754.301 193.747 774.016 222.227C773.134 199.462 771.713 179.278 769.971 161.567C742.743 160.542 680.761 148.546 669.494 95.0248C663.883 68.3741 731.168 95.9516 767.861 142.469C767.274 137.704 766.665 133.159 766.041 128.831C764.714 119.627 763.319 111.423 761.916 104.185C716.128 101.885 678.658 66.2908 695.969 60.6604C721.821 52.2525 743.705 67.9138 757.037 82.6403C756.017 78.8253 755.033 75.5475 754.11 72.7923C726.673 42.5544 696.986 -3.65428 715.285 0.229888Z" fill="#E7FEDE"/>
<path d="M708 568C708 560.268 714.268 554 722 554H794C801.732 554 808 560.268 808 568V738H708V568Z" fill="#FFF0CA"/>
<path d="M195.282 44.186C174.342 9.54752 130.723 64.7925 119.771 82.5333C119.249 83.3795 119 84.3366 119 85.3311C119 89.1196 122.693 91.8091 126.291 90.6215C166.791 77.2511 205.725 61.4607 195.282 44.186Z" fill="#E7FEDE"/>
<path d="M62.1746 187.81C60.3052 223.287 96.3876 241.579 113.87 247.249C115.535 247.789 117.326 247.568 118.861 246.727C121.138 245.48 122.535 243.021 122.04 240.473C115.711 207.866 63.1234 169.803 62.1746 187.81Z" fill="#E7FEDE"/>
<path d="M162.466 121.769C203.047 108.685 235.371 145.25 246.797 163.094C247.588 164.33 247.803 165.831 247.452 167.256C246.686 170.367 243.458 172.191 240.419 171.175C195.291 156.091 142.129 128.325 162.466 121.769Z" fill="#E7FEDE"/>
<path fill-rule="evenodd" clip-rule="evenodd" d="M60.9751 402.46C63.4968 390.126 64.3461 358.773 47.5691 332.028C35.8702 347.649 43.0203 388.477 60.9751 402.46ZM91.8549 354.023C91.2166 364.57 85.0846 390.176 65.6636 408.221C59.5761 393.017 74.255 361.465 91.8549 354.023ZM72.8875 422.082C75.583 409.785 87.5202 380.775 113.705 363.107C118.067 382.121 94.9742 416.559 72.8875 422.082ZM140.338 383.702C127.098 389.067 96.1604 408.105 78.3314 441.337C99.2609 442.801 135.508 409.994 140.338 383.702ZM60.7748 464.616C50.9173 454.286 21.8281 432.535 -15.6693 428.173C-9.34848 448.153 34.514 469.782 60.7748 464.616ZM58.6751 479.699C46.2822 472.597 12.1989 460.01 -24.9915 466.483C-13.2401 483.841 34.9711 492.113 58.6751 479.699ZM145.23 577.149C136.239 566.957 109.027 544.34 72.1021 535.413C76.8252 553.359 118.729 577.92 145.23 577.149ZM69.0071 551.986C78.7742 556.593 100.747 572.116 110.499 597.347C93.7604 597.339 69.3895 571.469 69.0071 551.986ZM59.0926 556.233C47.7599 565.02 15.6109 582.295 -22.3237 581.097C-13.0786 562.224 33.7432 547.246 59.0926 556.233ZM73.7505 491.851C87.9027 489.885 124.227 490.923 156.305 510.8C138.912 522.519 91.0963 512.208 73.7505 491.851ZM73.3018 471.498C86.8518 466.97 122.749 461.328 157.936 474.983C142.995 489.693 94.0962 488.328 73.3018 471.498ZM156.623 436.13C144.795 444.136 111.747 459.225 74.1765 455.54C84.5992 437.355 132.059 425.516 156.623 436.13ZM60.0319 537.756C47.8422 545.201 14.1236 558.732 -23.233 553.298C-11.9709 535.619 35.9905 526.007 60.0319 537.756ZM63.5269 518.955C49.832 525.696 13.3096 536.323 -23.2215 524.909C-15.9144 515.738 0.0931282 510.088 17.0474 508.762C3.48326 508.469 -9.40445 504.787 -15.7667 497.895C13.6276 486.31 44.3375 492.875 56.0182 497.605C48.952 503.853 37.6846 507.436 25.9701 508.467C40.3172 508.642 54.3764 511.979 63.5269 518.955ZM70.8759 513.371C86.1383 512.968 123.764 518.568 152.167 544.194C131.043 554.836 83.79 537.708 70.8759 513.371ZM-8.46828 404.851C-0.181583 414.337 24.2583 434.034 55.7242 436.942C50.389 418.177 13.5552 399.082 -8.46828 404.851ZM57.5784 416.029C53.2418 404.21 37.4844 377.078 9.14726 363.111C7.40086 382.54 34.9466 413.541 57.5784 416.029Z" fill="#FBCCE4"/>
<path d="M54.857 371.537C57.4264 382.847 60.2013 397.636 62.5951 414.507M51.9211 601.297C57.8075 587.968 61.8901 572.648 64.5656 556.28M62.5951 414.507C65.6919 404.861 72.8837 384.749 76.8766 381.475M62.5951 414.507C62.935 416.902 63.2672 419.34 63.59 421.815M63.59 421.815C56.9601 416.164 43.1132 404.276 40.7645 401.937C37.8285 399.014 26.6719 384.106 23.1488 384.106M63.59 421.815C64.2325 426.742 64.8379 431.819 65.3931 437.015M65.3931 437.015C72.3526 423.861 90.0296 394.337 105.062 381.475M65.3931 437.015C65.7118 439.999 66.0139 443.021 66.2969 446.077M66.2969 446.077C59.9391 439.646 39.6488 423.627 9.34987 410.999M66.2969 446.077C66.4495 447.724 66.5965 449.381 66.7375 451.047M66.7375 451.047C73.3468 446.662 89.0314 435.554 98.8962 426.2C108.761 416.846 124.732 402.814 131.485 396.968M66.7375 451.047C67.1366 455.758 67.4881 460.54 67.7832 465.37M67.7832 465.37C61.2236 464.688 45.9317 462.096 37.2413 457.185C26.3783 451.047 9.34987 442.277 2.89079 441.4M67.7832 465.37C67.8841 467.021 67.9784 468.678 68.0657 470.339M67.7832 459.524C78.8393 452.313 109.231 438.243 142.348 439.646M68.0657 470.339C73.4493 471.021 86.5065 473.204 95.6666 476.478C104.827 479.752 132.366 476.478 144.99 474.432M68.0657 470.339C68.2744 474.311 68.4434 478.309 68.5679 482.324M68.5679 482.324C60.8659 480.376 42.7609 476.478 31.9566 476.478C21.1524 476.478 1.22709 472.386 -7.38501 470.339M68.5679 482.324C68.6433 484.755 68.7023 487.192 68.744 489.632M68.7993 502.202C54.1697 499.279 19.978 495.186 0.248445 502.202M68.7993 502.202C68.8357 498.011 68.8154 493.817 68.744 489.632M68.7993 502.202C68.7739 505.128 68.721 508.053 68.6386 510.971M68.744 489.632C80.3606 495.186 110.757 506.411 139.412 506.879M68.6386 510.971C71.1889 514.284 79.7538 521.495 93.6115 523.833C110.934 526.756 122.971 537.28 135.889 539.911M68.6386 510.971C68.531 514.785 68.3731 518.588 68.1609 522.372M68.1609 522.372C64.8027 519.643 54.6221 515.005 40.7645 518.279C26.9068 521.553 4.84809 521.397 -4.44907 520.91M68.1609 522.372C67.9906 525.407 67.7854 528.429 67.5431 531.433M67.1065 536.403C52.4539 536.695 18.2164 539.677 -1.51312 549.265M67.1065 536.403C67.2636 534.752 67.409 533.096 67.5431 531.433M67.1065 536.403C66.6936 540.739 66.2 545.031 65.6189 549.265M67.5431 531.433C79.0706 541.372 106.412 562.594 123.558 567.973M65.6189 549.265C65.2953 551.622 64.9445 553.962 64.5656 556.28M65.6189 549.265C70.0793 552.176 82.9 563.7 98.5 586.5M64.5656 556.28C52.0322 555.598 20.6826 558.151 -4.44907 573.819" stroke="#FFB3DA" stroke-width="4" stroke-linejoin="round"/>
<rect x="3" y="600" width="104" height="14" fill="#FEDF92"/>
<path d="M8 614H102L92 738H18L8 614Z" fill="#FEDF92"/>
<rect x="866" y="724" width="52" height="14" fill="#FEDF92"/>
<path d="M746 544.5C780.4 535.7 820.667 543.5 836.5 548.5C801 533 768.5 506.5 751.5 495C795 497 820.5 509.5 853 535C829.4 515 798.833 461.667 786.5 437.5C800.167 444.333 835.1 468.6 865.5 511C843.5 467 845.333 429 849 415.5C853 432 885.5 486 890.5 526C890.5 473.5 904.5 416 906 410C918.5 426.5 912.5 509 909 532C921 471.2 965.333 443 986.5 430C981.5 436 969.7 454 962.5 478C955.3 502 935.667 526.167 923.5 543.5C930.667 538.833 941 520.5 962.5 505C984.645 489.035 1015.83 483 1033 478C1020.17 487.333 995.9 512.7 981.5 533.5C967.1 554.3 945 556.5 928.5 562.5C940.667 561.667 952.7 568.2 981.5 561C1010.3 553.8 1035.17 561.5 1044 564.5C1025.83 574.667 981.9 595 951.5 595C921.1 595 899.833 586 893 581.5C879.833 588 848.4 601 828 601C802.5 601 766 592.5 747.5 595C764.5 583.5 791 575.5 840.5 574.5C806.5 573 763.5 558 746 544.5Z" fill="#C8F9B4"/>
<path d="M891.5 578L926.574 608.75H856.426L891.5 578Z" fill="#FBCCE4"/>
<path d="M891.5 608L926.574 638.75H856.426L891.5 608Z" fill="#FBCCE4"/>
<path d="M891.5 638L926.574 668.75H856.426L891.5 638Z" fill="#FBCCE4"/>
<path d="M957 666C957 683.239 950.152 699.772 937.962 711.962C925.772 724.152 909.239 731 892 731C874.761 731 858.228 724.152 846.038 711.962C833.848 699.772 827 683.239 827 666L892 666H957Z" fill="#FEDF92"/>
<path d="M239 522.5C239 498.783 242.338 476.846 248 459C253.662 476.846 257 498.783 257 522.5C257 539.756 255.233 556.07 252.089 570.551C256.604 556.587 263.174 541.757 271.698 526.993C283.557 506.454 297.416 489.124 311.242 476.5C307.223 494.786 299.145 515.454 287.287 535.993C280.363 547.985 272.758 558.882 264.875 568.388C274.315 560.587 285.117 553.062 296.993 546.206C317.532 534.347 338.199 526.269 356.485 522.25C343.861 536.077 326.532 549.936 305.993 561.794C294.192 568.607 282.349 574.173 270.94 578.437C283.468 576.22 297.159 575 311.5 575C335.217 575 357.154 578.338 375 584C357.154 589.662 335.217 593 311.5 593C288.915 593 267.944 589.973 250.583 584.795C250.124 584.909 249.666 585.02 249.209 585.129L249.055 585.273C249.202 585.432 249.347 585.591 249.493 585.75C249.238 585.694 248.982 585.637 248.726 585.579C248.551 585.742 248.376 585.904 248.201 586.065C248.232 586.205 248.263 586.345 248.294 586.485C248.241 586.437 248.187 586.388 248.134 586.339C248.095 586.304 248.057 586.268 248.018 586.233C247.926 586.317 247.834 586.401 247.742 586.485C247.773 586.345 247.804 586.205 247.836 586.065C247.658 585.901 247.48 585.737 247.302 585.571C247.034 585.632 246.767 585.691 246.5 585.75C246.652 585.584 246.805 585.417 246.958 585.251L246.935 585.229C229.868 590.142 209.446 593 187.5 593C163.783 593 141.846 589.662 124 584C141.846 578.338 163.783 575 187.5 575C199.852 575 211.721 575.905 222.781 577.573C212.075 573.43 201.019 568.156 190 561.794C169.461 549.936 152.131 536.077 139.507 522.25C157.793 526.269 178.461 534.347 199 546.206C210.934 553.096 221.785 560.662 231.258 568.504C223.341 558.971 215.702 548.033 208.75 535.993C196.892 515.454 188.813 494.786 184.794 476.5C198.621 489.124 212.48 506.454 224.338 526.993C232.793 541.637 239.327 556.347 243.837 570.213C240.74 555.816 239 539.621 239 522.5Z" fill="#C8F9B4"/>
<path d="M240 586C240 581.582 243.582 578 248 578V578C252.418 578 256 581.582 256 586V699H240V586Z" fill="#FBCCE4"/>
<rect x="196" y="699" width="104" height="9" fill="#FEDF92"/>
<path d="M201 703H295L285 738H211L201 703Z" fill="#FEDF92"/>
</g>
<defs>
<clipPath id="clip0_98_547">
<rect width="1071" height="800" fill="white" transform="translate(-25)"/>
</clipPath>
</defs>
</svg>
