<svg width="854" height="224" viewBox="0 0 854 224" fill="none" xmlns="http://www.w3.org/2000/svg">
<rect x="2.5" y="2.5" width="849" height="219" rx="21.5" fill="white" fill-opacity="0.46" stroke="#5BC0C9" stroke-width="5"/>
<path d="M688.781 158.578V168.398H690.242V173.156H688.438V170H680.891V173.156H679.086V168.398H679.969C680.312 167.768 680.638 167.081 680.945 166.336C681.253 165.586 681.534 164.794 681.789 163.961C682.044 163.128 682.26 162.26 682.438 161.359C682.62 160.453 682.755 159.526 682.844 158.578H688.781ZM686.914 160.18H684.391C684.328 160.779 684.221 161.435 684.07 162.148C683.924 162.857 683.742 163.581 683.523 164.32C683.305 165.06 683.06 165.779 682.789 166.477C682.523 167.174 682.242 167.815 681.945 168.398H686.914V160.18ZM699.023 170H697.172V162.789H694.773C694.669 164.102 694.539 165.224 694.383 166.156C694.227 167.089 694.031 167.849 693.797 168.438C693.562 169.021 693.273 169.448 692.93 169.719C692.586 169.99 692.172 170.125 691.688 170.125C691.474 170.125 691.281 170.109 691.109 170.078C690.938 170.052 690.784 170.01 690.648 169.953V168.508C690.737 168.539 690.833 168.565 690.938 168.586C691.042 168.607 691.148 168.617 691.258 168.617C691.451 168.617 691.628 168.539 691.789 168.383C691.956 168.221 692.109 167.969 692.25 167.625C692.391 167.281 692.518 166.828 692.633 166.266C692.747 165.698 692.852 165.01 692.945 164.203C693.039 163.391 693.122 162.44 693.195 161.352H699.023V170ZM702.523 170H700.477L702.891 166.469C702.562 166.365 702.255 166.211 701.969 166.008C701.688 165.799 701.458 165.529 701.281 165.195C701.104 164.857 701.016 164.445 701.016 163.961C701.016 163.117 701.318 162.471 701.922 162.023C702.526 161.576 703.315 161.352 704.289 161.352H708.211V170H706.375V166.656H704.633L702.523 170ZM702.812 163.977C702.812 164.414 702.977 164.747 703.305 164.977C703.633 165.201 704.081 165.312 704.648 165.312H706.375V162.734H704.383C703.836 162.734 703.438 162.854 703.188 163.094C702.938 163.328 702.812 163.622 702.812 163.977ZM722.047 161.352V168.578H723.297V173.047H721.602V170H715.633V173.047H713.938V168.578H714.641C715.078 167.943 715.443 167.234 715.734 166.453C716.031 165.672 716.26 164.849 716.422 163.984C716.589 163.115 716.693 162.237 716.734 161.352H722.047ZM720.227 162.758H718.312C718.25 163.461 718.143 164.161 717.992 164.859C717.841 165.552 717.646 166.216 717.406 166.852C717.172 167.482 716.891 168.057 716.562 168.578H720.227V162.758ZM732.562 165.656C732.562 166.375 732.469 167.013 732.281 167.57C732.094 168.128 731.82 168.599 731.461 168.984C731.102 169.365 730.669 169.656 730.164 169.859C729.659 170.057 729.089 170.156 728.453 170.156C727.859 170.156 727.315 170.057 726.82 169.859C726.326 169.656 725.896 169.365 725.531 168.984C725.172 168.599 724.893 168.128 724.695 167.57C724.497 167.013 724.398 166.375 724.398 165.656C724.398 164.703 724.562 163.896 724.891 163.234C725.224 162.568 725.698 162.06 726.312 161.711C726.927 161.362 727.659 161.188 728.508 161.188C729.305 161.188 730.008 161.362 730.617 161.711C731.227 162.06 731.703 162.568 732.047 163.234C732.391 163.901 732.562 164.708 732.562 165.656ZM726.289 165.656C726.289 166.286 726.365 166.826 726.516 167.273C726.672 167.721 726.911 168.065 727.234 168.305C727.557 168.539 727.974 168.656 728.484 168.656C728.995 168.656 729.411 168.539 729.734 168.305C730.057 168.065 730.294 167.721 730.445 167.273C730.596 166.826 730.672 166.286 730.672 165.656C730.672 165.026 730.596 164.492 730.445 164.055C730.294 163.612 730.057 163.276 729.734 163.047C729.411 162.812 728.992 162.695 728.477 162.695C727.716 162.695 727.161 162.951 726.812 163.461C726.464 163.971 726.289 164.703 726.289 165.656ZM739.109 161.188C740.135 161.188 740.958 161.562 741.578 162.312C742.203 163.062 742.516 164.177 742.516 165.656C742.516 166.635 742.37 167.461 742.078 168.133C741.792 168.799 741.388 169.305 740.867 169.648C740.352 169.987 739.75 170.156 739.062 170.156C738.625 170.156 738.245 170.099 737.922 169.984C737.599 169.87 737.323 169.721 737.094 169.539C736.865 169.352 736.672 169.148 736.516 168.93H736.406C736.432 169.138 736.456 169.37 736.477 169.625C736.503 169.875 736.516 170.104 736.516 170.312V173.836H734.672V161.352H736.172L736.43 162.547H736.516C736.677 162.302 736.872 162.076 737.102 161.867C737.336 161.659 737.617 161.495 737.945 161.375C738.279 161.25 738.667 161.188 739.109 161.188ZM738.617 162.688C738.112 162.688 737.706 162.789 737.398 162.992C737.096 163.19 736.875 163.49 736.734 163.891C736.599 164.292 736.526 164.794 736.516 165.398V165.656C736.516 166.297 736.581 166.841 736.711 167.289C736.846 167.732 737.068 168.07 737.375 168.305C737.688 168.534 738.109 168.648 738.641 168.648C739.089 168.648 739.458 168.526 739.75 168.281C740.047 168.036 740.268 167.688 740.414 167.234C740.56 166.781 740.633 166.247 740.633 165.633C740.633 164.701 740.466 163.977 740.133 163.461C739.805 162.945 739.299 162.688 738.617 162.688ZM752.297 165.656C752.297 166.375 752.203 167.013 752.016 167.57C751.828 168.128 751.555 168.599 751.195 168.984C750.836 169.365 750.404 169.656 749.898 169.859C749.393 170.057 748.823 170.156 748.188 170.156C747.594 170.156 747.049 170.057 746.555 169.859C746.06 169.656 745.63 169.365 745.266 168.984C744.906 168.599 744.628 168.128 744.43 167.57C744.232 167.013 744.133 166.375 744.133 165.656C744.133 164.703 744.297 163.896 744.625 163.234C744.958 162.568 745.432 162.06 746.047 161.711C746.661 161.362 747.393 161.188 748.242 161.188C749.039 161.188 749.742 161.362 750.352 161.711C750.961 162.06 751.438 162.568 751.781 163.234C752.125 163.901 752.297 164.708 752.297 165.656ZM746.023 165.656C746.023 166.286 746.099 166.826 746.25 167.273C746.406 167.721 746.646 168.065 746.969 168.305C747.292 168.539 747.708 168.656 748.219 168.656C748.729 168.656 749.146 168.539 749.469 168.305C749.792 168.065 750.029 167.721 750.18 167.273C750.331 166.826 750.406 166.286 750.406 165.656C750.406 165.026 750.331 164.492 750.18 164.055C750.029 163.612 749.792 163.276 749.469 163.047C749.146 162.812 748.727 162.695 748.211 162.695C747.451 162.695 746.896 162.951 746.547 163.461C746.198 163.971 746.023 164.703 746.023 165.656ZM757.891 170.156C757.073 170.156 756.365 169.997 755.766 169.68C755.167 169.362 754.706 168.875 754.383 168.219C754.06 167.562 753.898 166.729 753.898 165.719C753.898 164.667 754.076 163.807 754.43 163.141C754.784 162.474 755.273 161.982 755.898 161.664C756.529 161.346 757.25 161.188 758.062 161.188C758.578 161.188 759.044 161.24 759.461 161.344C759.883 161.443 760.24 161.565 760.531 161.711L759.984 163.18C759.667 163.049 759.341 162.94 759.008 162.852C758.674 162.763 758.354 162.719 758.047 162.719C757.542 162.719 757.12 162.831 756.781 163.055C756.448 163.279 756.198 163.612 756.031 164.055C755.87 164.497 755.789 165.047 755.789 165.703C755.789 166.339 755.872 166.875 756.039 167.312C756.206 167.745 756.453 168.073 756.781 168.297C757.109 168.516 757.513 168.625 757.992 168.625C758.466 168.625 758.891 168.568 759.266 168.453C759.641 168.339 759.995 168.19 760.328 168.008V169.602C760 169.789 759.648 169.927 759.273 170.016C758.898 170.109 758.438 170.156 757.891 170.156ZM769.477 170H767.625V162.789H765.227C765.122 164.102 764.992 165.224 764.836 166.156C764.68 167.089 764.484 167.849 764.25 168.438C764.016 169.021 763.727 169.448 763.383 169.719C763.039 169.99 762.625 170.125 762.141 170.125C761.927 170.125 761.734 170.109 761.562 170.078C761.391 170.052 761.237 170.01 761.102 169.953V168.508C761.19 168.539 761.286 168.565 761.391 168.586C761.495 168.607 761.602 168.617 761.711 168.617C761.904 168.617 762.081 168.539 762.242 168.383C762.409 168.221 762.562 167.969 762.703 167.625C762.844 167.281 762.971 166.828 763.086 166.266C763.201 165.698 763.305 165.01 763.398 164.203C763.492 163.391 763.576 162.44 763.648 161.352H769.477V170ZM773.875 161.352V165.766C773.875 165.906 773.87 166.086 773.859 166.305C773.854 166.518 773.844 166.742 773.828 166.977C773.812 167.206 773.797 167.417 773.781 167.609C773.766 167.802 773.753 167.945 773.742 168.039L778.094 161.352H780.328V170H778.57V165.633C778.57 165.404 778.576 165.138 778.586 164.836C778.602 164.534 778.617 164.242 778.633 163.961C778.654 163.68 778.667 163.466 778.672 163.32L774.336 170H772.109V161.352H773.875ZM784.883 165.578L781.992 161.352H784.086L786.062 164.391L788.047 161.352H790.133L787.227 165.578L790.281 170H788.18L786.062 166.758L783.938 170H781.852L784.883 165.578Z" fill="#081F32"/>
<path d="M650.96 165.399C654.507 165.399 657.384 162.522 657.384 158.975C657.384 155.429 654.507 152.572 650.96 152.572C647.414 152.572 644.537 155.448 644.537 158.975C644.537 162.503 647.413 165.399 650.96 165.399ZM650.96 154.246C653.561 154.246 655.689 156.374 655.689 158.975C655.689 161.577 653.561 163.705 650.96 163.705C648.359 163.705 646.231 161.576 646.231 158.975C646.231 156.374 648.359 154.246 650.96 154.246Z" fill="#6E798C"/>
<path d="M639.847 175.429H662.153C662.626 175.429 663 175.054 663 174.581C663 170.148 659.394 166.522 654.941 166.522H647.059C642.626 166.522 639 170.128 639 174.581C639 175.054 639.374 175.429 639.847 175.429ZM647.059 168.217H654.941C658.172 168.217 660.832 170.621 661.246 173.734H640.754C641.167 170.64 643.828 168.217 647.059 168.217Z" fill="#6E798C"/>
<path d="M685.117 119H683.273V111.648C683.273 111.404 683.276 111.159 683.281 110.914C683.286 110.669 683.292 110.43 683.297 110.195C683.307 109.961 683.32 109.737 683.336 109.523C683.227 109.643 683.091 109.773 682.93 109.914C682.773 110.055 682.607 110.201 682.43 110.352L681.117 111.398L680.195 110.234L683.586 107.578H685.117V119ZM696.609 113.281C696.609 114.203 696.536 115.029 696.391 115.758C696.25 116.482 696.026 117.096 695.719 117.602C695.411 118.107 695.01 118.492 694.516 118.758C694.021 119.023 693.422 119.156 692.719 119.156C691.839 119.156 691.112 118.924 690.539 118.461C689.966 117.992 689.542 117.32 689.266 116.445C688.99 115.565 688.852 114.51 688.852 113.281C688.852 112.052 688.977 111 689.227 110.125C689.482 109.245 689.893 108.57 690.461 108.102C691.029 107.633 691.781 107.398 692.719 107.398C693.604 107.398 694.333 107.633 694.906 108.102C695.484 108.565 695.911 109.237 696.188 110.117C696.469 110.992 696.609 112.047 696.609 113.281ZM690.703 113.281C690.703 114.245 690.766 115.049 690.891 115.695C691.021 116.341 691.234 116.826 691.531 117.148C691.828 117.466 692.224 117.625 692.719 117.625C693.214 117.625 693.609 117.466 693.906 117.148C694.203 116.831 694.417 116.349 694.547 115.703C694.682 115.057 694.75 114.25 694.75 113.281C694.75 112.323 694.685 111.521 694.555 110.875C694.424 110.229 694.211 109.745 693.914 109.422C693.617 109.094 693.219 108.93 692.719 108.93C692.219 108.93 691.82 109.094 691.523 109.422C691.232 109.745 691.021 110.229 690.891 110.875C690.766 111.521 690.703 112.323 690.703 113.281ZM709.312 111.797H706.469V119H704.641V111.797H701.812V110.352H709.312V111.797ZM712.75 110.352V114.766C712.75 114.906 712.745 115.086 712.734 115.305C712.729 115.518 712.719 115.742 712.703 115.977C712.688 116.206 712.672 116.417 712.656 116.609C712.641 116.802 712.628 116.945 712.617 117.039L716.969 110.352H719.203V119H717.445V114.633C717.445 114.404 717.451 114.138 717.461 113.836C717.477 113.534 717.492 113.242 717.508 112.961C717.529 112.68 717.542 112.466 717.547 112.32L713.211 119H710.984V110.352H712.75ZM733.062 110.352L729.672 114.523L733.367 119H731.352L727.812 114.609V119H726.102V114.609L722.562 119H720.547L724.242 114.523L720.852 110.352H722.797L726.102 114.547V110.352H727.812V114.547L731.125 110.352H733.062ZM736.562 110.352V113.828H740.609V110.352H742.453V119H740.609V115.266H736.562V119H734.719V110.352H736.562ZM746.914 110.352V119H745.078V110.352H746.914ZM746.008 107.039C746.289 107.039 746.531 107.115 746.734 107.266C746.943 107.417 747.047 107.677 747.047 108.047C747.047 108.411 746.943 108.672 746.734 108.828C746.531 108.979 746.289 109.055 746.008 109.055C745.716 109.055 745.469 108.979 745.266 108.828C745.068 108.672 744.969 108.411 744.969 108.047C744.969 107.677 745.068 107.417 745.266 107.266C745.469 107.115 745.716 107.039 746.008 107.039ZM756.82 112.57C756.82 113.07 756.667 113.479 756.359 113.797C756.057 114.109 755.641 114.315 755.109 114.414V114.477C755.677 114.549 756.151 114.75 756.531 115.078C756.911 115.406 757.102 115.862 757.102 116.445C757.102 116.94 756.977 117.38 756.727 117.766C756.482 118.146 756.091 118.448 755.555 118.672C755.023 118.891 754.328 119 753.469 119H749.547V110.352H753.453C754.099 110.352 754.674 110.422 755.18 110.562C755.69 110.703 756.091 110.935 756.383 111.258C756.674 111.581 756.82 112.018 756.82 112.57ZM755.188 116.383C755.188 115.956 755.023 115.648 754.695 115.461C754.372 115.273 753.898 115.18 753.273 115.18H751.391V117.648H753.312C753.896 117.648 754.354 117.552 754.688 117.359C755.021 117.161 755.188 116.836 755.188 116.383ZM754.953 112.734C754.953 112.396 754.826 112.146 754.57 111.984C754.315 111.818 753.914 111.734 753.367 111.734H751.391V113.828H753.117C753.721 113.828 754.177 113.742 754.484 113.57C754.797 113.393 754.953 113.115 754.953 112.734ZM763.977 107.578L759.719 119H758L762.258 107.578H763.977ZM772.562 119H764.828V117.617L767.789 114.617C768.362 114.034 768.833 113.531 769.203 113.109C769.573 112.682 769.846 112.279 770.023 111.898C770.206 111.518 770.297 111.104 770.297 110.656C770.297 110.104 770.138 109.688 769.82 109.406C769.503 109.12 769.083 108.977 768.562 108.977C768.068 108.977 767.609 109.076 767.188 109.273C766.771 109.466 766.339 109.742 765.891 110.102L764.883 108.891C765.201 108.62 765.539 108.372 765.898 108.148C766.263 107.924 766.669 107.747 767.117 107.617C767.565 107.482 768.076 107.414 768.648 107.414C769.372 107.414 769.997 107.544 770.523 107.805C771.049 108.06 771.453 108.417 771.734 108.875C772.021 109.333 772.164 109.867 772.164 110.477C772.164 111.091 772.042 111.659 771.797 112.18C771.552 112.701 771.203 113.216 770.75 113.727C770.297 114.232 769.758 114.781 769.133 115.375L767.156 117.305V117.391H772.562V119ZM781.719 113.281C781.719 114.203 781.646 115.029 781.5 115.758C781.359 116.482 781.135 117.096 780.828 117.602C780.521 118.107 780.12 118.492 779.625 118.758C779.13 119.023 778.531 119.156 777.828 119.156C776.948 119.156 776.221 118.924 775.648 118.461C775.076 117.992 774.651 117.32 774.375 116.445C774.099 115.565 773.961 114.51 773.961 113.281C773.961 112.052 774.086 111 774.336 110.125C774.591 109.245 775.003 108.57 775.57 108.102C776.138 107.633 776.891 107.398 777.828 107.398C778.714 107.398 779.443 107.633 780.016 108.102C780.594 108.565 781.021 109.237 781.297 110.117C781.578 110.992 781.719 112.047 781.719 113.281ZM775.812 113.281C775.812 114.245 775.875 115.049 776 115.695C776.13 116.341 776.344 116.826 776.641 117.148C776.938 117.466 777.333 117.625 777.828 117.625C778.323 117.625 778.719 117.466 779.016 117.148C779.312 116.831 779.526 116.349 779.656 115.703C779.792 115.057 779.859 114.25 779.859 113.281C779.859 112.323 779.794 111.521 779.664 110.875C779.534 110.229 779.32 109.745 779.023 109.422C778.727 109.094 778.328 108.93 777.828 108.93C777.328 108.93 776.93 109.094 776.633 109.422C776.341 109.745 776.13 110.229 776 110.875C775.875 111.521 775.812 112.323 775.812 113.281ZM786.422 110.188C787.057 110.188 787.628 110.273 788.133 110.445C788.643 110.612 789.047 110.865 789.344 111.203C789.641 111.542 789.789 111.964 789.789 112.469C789.789 112.99 789.638 113.406 789.336 113.719C789.039 114.026 788.635 114.247 788.125 114.383V114.453C788.484 114.542 788.81 114.669 789.102 114.836C789.393 114.997 789.625 115.216 789.797 115.492C789.974 115.763 790.062 116.112 790.062 116.539C790.062 117.023 789.919 117.464 789.633 117.859C789.352 118.255 788.919 118.57 788.336 118.805C787.753 119.039 787.01 119.156 786.109 119.156C785.677 119.156 785.266 119.133 784.875 119.086C784.49 119.044 784.138 118.984 783.82 118.906C783.503 118.823 783.227 118.724 782.992 118.609V117.031C783.352 117.203 783.786 117.359 784.297 117.5C784.807 117.635 785.354 117.703 785.938 117.703C786.37 117.703 786.76 117.664 787.109 117.586C787.464 117.503 787.742 117.367 787.945 117.18C788.154 116.992 788.258 116.742 788.258 116.43C788.258 116.143 788.167 115.906 787.984 115.719C787.802 115.531 787.529 115.393 787.164 115.305C786.799 115.211 786.339 115.164 785.781 115.164H784.75V113.812H785.656C786.422 113.812 787.021 113.729 787.453 113.562C787.891 113.391 788.109 113.094 788.109 112.672C788.109 112.318 787.956 112.052 787.648 111.875C787.341 111.698 786.87 111.609 786.234 111.609C785.797 111.609 785.365 111.659 784.938 111.758C784.51 111.852 784.083 111.987 783.656 112.164L783.078 110.812C783.552 110.62 784.06 110.469 784.602 110.359C785.143 110.245 785.75 110.188 786.422 110.188ZM795.438 110.188C796.531 110.188 797.357 110.43 797.914 110.914C798.477 111.398 798.758 112.154 798.758 113.18V119H797.453L797.102 117.773H797.039C796.794 118.086 796.542 118.344 796.281 118.547C796.021 118.75 795.719 118.901 795.375 119C795.036 119.104 794.622 119.156 794.133 119.156C793.617 119.156 793.156 119.062 792.75 118.875C792.344 118.682 792.023 118.391 791.789 118C791.555 117.609 791.438 117.115 791.438 116.516C791.438 115.625 791.768 114.956 792.43 114.508C793.096 114.06 794.102 113.812 795.445 113.766L796.945 113.711V113.258C796.945 112.659 796.805 112.232 796.523 111.977C796.247 111.721 795.857 111.594 795.352 111.594C794.919 111.594 794.5 111.656 794.094 111.781C793.688 111.906 793.292 112.06 792.906 112.242L792.312 110.945C792.734 110.721 793.214 110.539 793.75 110.398C794.292 110.258 794.854 110.188 795.438 110.188ZM796.938 114.867L795.82 114.906C794.904 114.938 794.26 115.094 793.891 115.375C793.521 115.656 793.336 116.042 793.336 116.531C793.336 116.958 793.464 117.271 793.719 117.469C793.974 117.661 794.31 117.758 794.727 117.758C795.362 117.758 795.888 117.578 796.305 117.219C796.727 116.854 796.938 116.32 796.938 115.617V114.867ZM803.172 110.352V113.828H807.219V110.352H809.062V119H807.219V115.266H803.172V119H801.328V110.352H803.172ZM812.555 119H810.508L812.922 115.469C812.594 115.365 812.286 115.211 812 115.008C811.719 114.799 811.49 114.529 811.312 114.195C811.135 113.857 811.047 113.445 811.047 112.961C811.047 112.117 811.349 111.471 811.953 111.023C812.557 110.576 813.346 110.352 814.32 110.352H818.242V119H816.406V115.656H814.664L812.555 119ZM812.844 112.977C812.844 113.414 813.008 113.747 813.336 113.977C813.664 114.201 814.112 114.312 814.68 114.312H816.406V111.734H814.414C813.867 111.734 813.469 111.854 813.219 112.094C812.969 112.328 812.844 112.622 812.844 112.977ZM827.391 111.797H824.547V119H822.719V111.797H819.891V110.352H827.391V111.797ZM830.906 113.805H833.055C833.867 113.805 834.539 113.898 835.07 114.086C835.607 114.268 836.008 114.544 836.273 114.914C836.539 115.284 836.672 115.747 836.672 116.305C836.672 116.852 836.547 117.328 836.297 117.734C836.047 118.135 835.656 118.448 835.125 118.672C834.599 118.891 833.911 119 833.062 119H829.062V110.352H830.906V113.805ZM834.828 116.352C834.828 115.919 834.667 115.615 834.344 115.438C834.021 115.255 833.56 115.164 832.961 115.164H830.906V117.648H832.977C833.523 117.648 833.969 117.549 834.312 117.352C834.656 117.148 834.828 116.815 834.828 116.352Z" fill="#081F32"/>
<path d="M656.522 111.312C656.522 110.795 656.102 110.375 655.584 110.375H645.928C645.41 110.375 644.99 110.795 644.99 111.312C644.99 111.83 645.41 112.25 645.928 112.25H655.584C656.102 112.25 656.522 111.83 656.522 111.312Z" fill="#6E798C"/>
<path d="M645.928 114.125C645.41 114.125 644.99 114.545 644.99 115.062C644.99 115.58 645.41 116 645.928 116H651.792C652.31 116 652.73 115.58 652.73 115.062C652.73 114.545 652.31 114.125 651.792 114.125H645.928Z" fill="#6E798C"/>
<path d="M648.131 123.125H644.996C643.962 123.125 643.121 122.284 643.121 121.25V104.75C643.121 103.716 643.962 102.875 644.996 102.875H656.522C657.556 102.875 658.397 103.716 658.397 104.75V110.516C658.397 111.033 658.816 111.453 659.334 111.453C659.852 111.453 660.272 111.033 660.272 110.516V104.75C660.272 102.682 658.589 101 656.522 101H644.996C642.928 101 641.246 102.682 641.246 104.75V121.25C641.246 123.318 642.928 125 644.996 125H648.131C648.649 125 649.069 124.58 649.069 124.062C649.069 123.545 648.649 123.125 648.131 123.125Z" fill="#6E798C"/>
<path d="M661.932 114.574C660.835 113.477 659.051 113.477 657.955 114.573L652.808 119.709C652.699 119.818 652.618 119.952 652.573 120.1L651.453 123.79C651.353 124.117 651.44 124.472 651.679 124.717C651.857 124.901 652.1 125 652.35 125C652.433 125 652.517 124.989 652.6 124.966L656.384 123.918C656.54 123.875 656.681 123.792 656.796 123.678L661.932 118.551C663.029 117.455 663.029 115.67 661.932 114.574ZM655.646 122.177L653.742 122.704L654.299 120.87L657.772 117.405L659.098 118.731L655.646 122.177ZM660.607 117.225L660.425 117.406L659.099 116.08L659.28 115.9C659.646 115.534 660.241 115.534 660.606 115.9C660.972 116.265 660.972 116.86 660.607 117.225Z" fill="#6E798C"/>
<path d="M655.584 106.625H645.928C645.41 106.625 644.99 107.045 644.99 107.562C644.99 108.08 645.41 108.5 645.928 108.5H655.584C656.102 108.5 656.522 108.08 656.522 107.562C656.522 107.045 656.102 106.625 655.584 106.625Z" fill="#6E798C"/>
<path d="M689.25 67H687.07L682.375 61.2031V67H680.5V55.5781H682.375V61.1094L686.984 55.5781H689.031L684.422 61.0938L689.25 67ZM692.414 58.3516V67H690.578V58.3516H692.414ZM691.508 55.0391C691.789 55.0391 692.031 55.1146 692.234 55.2656C692.443 55.4167 692.547 55.6771 692.547 56.0469C692.547 56.4115 692.443 56.6719 692.234 56.8281C692.031 56.9792 691.789 57.0547 691.508 57.0547C691.216 57.0547 690.969 56.9792 690.766 56.8281C690.568 56.6719 690.469 56.4115 690.469 56.0469C690.469 55.6771 690.568 55.4167 690.766 55.2656C690.969 55.1146 691.216 55.0391 691.508 55.0391ZM702.164 67H700.312V59.7891H697.914C697.81 61.1016 697.68 62.224 697.523 63.1562C697.367 64.0885 697.172 64.849 696.938 65.4375C696.703 66.0208 696.414 66.4479 696.07 66.7188C695.727 66.9896 695.312 67.125 694.828 67.125C694.615 67.125 694.422 67.1094 694.25 67.0781C694.078 67.0521 693.924 67.0104 693.789 66.9531V65.5078C693.878 65.5391 693.974 65.5651 694.078 65.5859C694.182 65.6068 694.289 65.6172 694.398 65.6172C694.591 65.6172 694.768 65.5391 694.93 65.3828C695.096 65.2214 695.25 64.9688 695.391 64.625C695.531 64.2812 695.659 63.8281 695.773 63.2656C695.888 62.6979 695.992 62.0104 696.086 61.2031C696.18 60.3906 696.263 59.4401 696.336 58.3516H702.164V67ZM706.641 61.8047H708.789C709.602 61.8047 710.273 61.8984 710.805 62.0859C711.341 62.2682 711.742 62.5443 712.008 62.9141C712.273 63.2839 712.406 63.7474 712.406 64.3047C712.406 64.8516 712.281 65.3281 712.031 65.7344C711.781 66.1354 711.391 66.4479 710.859 66.6719C710.333 66.8906 709.646 67 708.797 67H704.797V58.3516H706.641V61.8047ZM710.562 64.3516C710.562 63.9193 710.401 63.6146 710.078 63.4375C709.755 63.2552 709.294 63.1641 708.695 63.1641H706.641V65.6484H708.711C709.258 65.6484 709.703 65.5495 710.047 65.3516C710.391 65.1484 710.562 64.8151 710.562 64.3516ZM719.797 58.3516H721.82L718.242 62.5078L722.125 67H720.008L716.281 62.6094V67H714.438V58.3516H716.281V62.5469L719.797 58.3516ZM725.367 58.3516V67H723.531V58.3516H725.367ZM724.461 55.0391C724.742 55.0391 724.984 55.1146 725.188 55.2656C725.396 55.4167 725.5 55.6771 725.5 56.0469C725.5 56.4115 725.396 56.6719 725.188 56.8281C724.984 56.9792 724.742 57.0547 724.461 57.0547C724.169 57.0547 723.922 56.9792 723.719 56.8281C723.521 56.6719 723.422 56.4115 723.422 56.0469C723.422 55.6771 723.521 55.4167 723.719 55.2656C723.922 55.1146 724.169 55.0391 724.461 55.0391ZM731.484 67.1562C730.667 67.1562 729.958 66.9974 729.359 66.6797C728.76 66.362 728.299 65.875 727.977 65.2188C727.654 64.5625 727.492 63.7292 727.492 62.7188C727.492 61.6667 727.669 60.8073 728.023 60.1406C728.378 59.474 728.867 58.9818 729.492 58.6641C730.122 58.3464 730.844 58.1875 731.656 58.1875C732.172 58.1875 732.638 58.2396 733.055 58.3438C733.477 58.4427 733.833 58.5651 734.125 58.7109L733.578 60.1797C733.26 60.0495 732.935 59.9401 732.602 59.8516C732.268 59.763 731.948 59.7188 731.641 59.7188C731.135 59.7188 730.714 59.8307 730.375 60.0547C730.042 60.2786 729.792 60.612 729.625 61.0547C729.464 61.4974 729.383 62.0469 729.383 62.7031C729.383 63.3385 729.466 63.875 729.633 64.3125C729.799 64.7448 730.047 65.0729 730.375 65.2969C730.703 65.5156 731.107 65.625 731.586 65.625C732.06 65.625 732.484 65.5677 732.859 65.4531C733.234 65.3385 733.589 65.1901 733.922 65.0078V66.6016C733.594 66.7891 733.242 66.9271 732.867 67.0156C732.492 67.1094 732.031 67.1562 731.484 67.1562ZM742.484 59.7969H739.641V67H737.812V59.7969H734.984V58.3516H742.484V59.7969ZM746 61.8047H748.148C748.961 61.8047 749.633 61.8984 750.164 62.0859C750.701 62.2682 751.102 62.5443 751.367 62.9141C751.633 63.2839 751.766 63.7474 751.766 64.3047C751.766 64.8516 751.641 65.3281 751.391 65.7344C751.141 66.1354 750.75 66.4479 750.219 66.6719C749.693 66.8906 749.005 67 748.156 67H744.156V58.3516H746V61.8047ZM749.922 64.3516C749.922 63.9193 749.76 63.6146 749.438 63.4375C749.115 63.2552 748.654 63.1641 748.055 63.1641H746V65.6484H748.07C748.617 65.6484 749.062 65.5495 749.406 65.3516C749.75 65.1484 749.922 64.8151 749.922 64.3516ZM763.562 58.3516V59.7969H759.797V67H757.953V58.3516H763.562ZM772.891 62.6562C772.891 63.375 772.797 64.013 772.609 64.5703C772.422 65.1276 772.148 65.599 771.789 65.9844C771.43 66.3646 770.997 66.6562 770.492 66.8594C769.987 67.0573 769.417 67.1562 768.781 67.1562C768.188 67.1562 767.643 67.0573 767.148 66.8594C766.654 66.6562 766.224 66.3646 765.859 65.9844C765.5 65.599 765.221 65.1276 765.023 64.5703C764.826 64.013 764.727 63.375 764.727 62.6562C764.727 61.7031 764.891 60.8958 765.219 60.2344C765.552 59.5677 766.026 59.0599 766.641 58.7109C767.255 58.362 767.987 58.1875 768.836 58.1875C769.633 58.1875 770.336 58.362 770.945 58.7109C771.555 59.0599 772.031 59.5677 772.375 60.2344C772.719 60.901 772.891 61.7083 772.891 62.6562ZM766.617 62.6562C766.617 63.2865 766.693 63.8255 766.844 64.2734C767 64.7214 767.24 65.0651 767.562 65.3047C767.885 65.5391 768.302 65.6562 768.812 65.6562C769.323 65.6562 769.74 65.5391 770.062 65.3047C770.385 65.0651 770.622 64.7214 770.773 64.2734C770.924 63.8255 771 63.2865 771 62.6562C771 62.026 770.924 61.4922 770.773 61.0547C770.622 60.612 770.385 60.276 770.062 60.0469C769.74 59.8125 769.32 59.6953 768.805 59.6953C768.044 59.6953 767.49 59.9505 767.141 60.4609C766.792 60.9714 766.617 61.7031 766.617 62.6562ZM782.062 58.3516V65.5781H783.312V70.0469H781.617V67H775.648V70.0469H773.953V65.5781H774.656C775.094 64.9427 775.458 64.2344 775.75 63.4531C776.047 62.6719 776.276 61.849 776.438 60.9844C776.604 60.1146 776.708 59.237 776.75 58.3516H782.062ZM780.242 59.7578H778.328C778.266 60.4609 778.159 61.1615 778.008 61.8594C777.857 62.5521 777.661 63.2161 777.422 63.8516C777.188 64.4818 776.906 65.0573 776.578 65.5781H780.242V59.7578ZM786.688 58.3516V62.7656C786.688 62.9062 786.682 63.0859 786.672 63.3047C786.667 63.5182 786.656 63.7422 786.641 63.9766C786.625 64.2057 786.609 64.4167 786.594 64.6094C786.578 64.8021 786.565 64.9453 786.555 65.0391L790.906 58.3516H793.141V67H791.383V62.6328C791.383 62.4036 791.388 62.138 791.398 61.8359C791.414 61.5339 791.43 61.2422 791.445 60.9609C791.466 60.6797 791.479 60.4661 791.484 60.3203L787.148 67H784.922V58.3516H786.688ZM797.625 58.3516V61.8281H801.672V58.3516H803.516V67H801.672V63.2656H797.625V67H795.781V58.3516H797.625Z" fill="#081F32"/>
<path d="M658.19 60.8857C658.19 60.3828 657.787 59.9754 657.291 59.9754H651.792V54.4842V54.484C651.792 53.9794 651.383 53.5701 650.878 53.5701C650.374 53.5701 649.964 53.9794 649.964 54.484V60.8821C649.964 61.3869 650.374 61.7962 650.878 61.7962H657.292C657.787 61.7962 658.19 61.3886 658.19 60.8857ZM660.934 60.8799C660.934 66.4337 656.433 70.936 650.88 70.936C645.327 70.936 640.826 66.4337 640.826 60.8799C640.826 55.3261 645.327 50.8239 650.88 50.8239C656.433 50.8239 660.934 55.3261 660.934 60.8799ZM662.76 60.8799C662.76 54.3188 657.441 49 650.88 49C644.319 49 639 54.3188 639 60.8799C639 67.4411 644.319 72.7599 650.88 72.7599C657.441 72.7599 662.76 67.4411 662.76 60.8799Z" fill="#6E798C"/>
<path d="M211.469 121.273C211.469 122.154 211.357 122.956 211.133 123.68C210.909 124.398 210.576 125.018 210.133 125.539C209.695 126.055 209.151 126.453 208.5 126.734C207.849 127.016 207.094 127.156 206.234 127.156C205.349 127.156 204.576 127.016 203.914 126.734C203.258 126.453 202.711 126.052 202.273 125.531C201.841 125.01 201.516 124.388 201.297 123.664C201.083 122.94 200.977 122.138 200.977 121.258C200.977 120.091 201.169 119.068 201.555 118.188C201.94 117.307 202.523 116.622 203.305 116.133C204.091 115.643 205.076 115.398 206.258 115.398C207.388 115.398 208.339 115.641 209.109 116.125C209.885 116.609 210.471 117.292 210.867 118.172C211.268 119.047 211.469 120.081 211.469 121.273ZM202.375 121.273C202.375 122.242 202.513 123.081 202.789 123.789C203.065 124.497 203.487 125.044 204.055 125.43C204.628 125.815 205.354 126.008 206.234 126.008C207.12 126.008 207.844 125.815 208.406 125.43C208.974 125.044 209.393 124.497 209.664 123.789C209.935 123.081 210.07 122.242 210.07 121.273C210.07 119.799 209.76 118.648 209.141 117.82C208.526 116.987 207.565 116.57 206.258 116.57C205.372 116.57 204.643 116.76 204.07 117.141C203.497 117.521 203.07 118.062 202.789 118.766C202.513 119.464 202.375 120.299 202.375 121.273ZM220.992 118.438V127H219.688V119.555H215.125V127H213.82V118.438H220.992ZM224.977 118.438V123.82C224.977 123.924 224.974 124.06 224.969 124.227C224.964 124.388 224.956 124.562 224.945 124.75C224.935 124.932 224.924 125.109 224.914 125.281C224.909 125.448 224.901 125.586 224.891 125.695L229.562 118.438H231.156V127H229.945V121.75C229.945 121.583 229.948 121.37 229.953 121.109C229.958 120.849 229.966 120.594 229.977 120.344C229.987 120.089 229.995 119.891 230 119.75L225.344 127H223.742V118.438H224.977ZM237.344 127.156C236.573 127.156 235.893 126.997 235.305 126.68C234.716 126.362 234.258 125.878 233.93 125.227C233.602 124.576 233.438 123.755 233.438 122.766C233.438 121.729 233.609 120.883 233.953 120.227C234.302 119.565 234.781 119.076 235.391 118.758C236 118.44 236.693 118.281 237.469 118.281C237.896 118.281 238.307 118.326 238.703 118.414C239.104 118.497 239.432 118.604 239.688 118.734L239.297 119.82C239.036 119.716 238.734 119.622 238.391 119.539C238.052 119.456 237.734 119.414 237.438 119.414C236.844 119.414 236.349 119.542 235.953 119.797C235.562 120.052 235.268 120.427 235.07 120.922C234.878 121.417 234.781 122.026 234.781 122.75C234.781 123.443 234.875 124.034 235.062 124.523C235.255 125.013 235.539 125.388 235.914 125.648C236.294 125.904 236.768 126.031 237.336 126.031C237.789 126.031 238.198 125.984 238.562 125.891C238.927 125.792 239.258 125.677 239.555 125.547V126.703C239.268 126.849 238.948 126.961 238.594 127.039C238.245 127.117 237.828 127.156 237.344 127.156ZM247.945 118.281C248.586 118.281 249.141 118.37 249.609 118.547C250.078 118.719 250.44 118.971 250.695 119.305C250.951 119.638 251.078 120.044 251.078 120.523C251.078 121.039 250.938 121.451 250.656 121.758C250.375 122.065 249.987 122.286 249.492 122.422V122.484C249.841 122.578 250.156 122.714 250.438 122.891C250.724 123.062 250.951 123.292 251.117 123.578C251.289 123.859 251.375 124.211 251.375 124.633C251.375 125.112 251.245 125.544 250.984 125.93C250.724 126.31 250.328 126.609 249.797 126.828C249.266 127.047 248.594 127.156 247.781 127.156C247.38 127.156 247 127.133 246.641 127.086C246.281 127.044 245.956 126.982 245.664 126.898C245.372 126.815 245.117 126.716 244.898 126.602V125.422C245.263 125.599 245.69 125.755 246.18 125.891C246.669 126.026 247.198 126.094 247.766 126.094C248.203 126.094 248.596 126.044 248.945 125.945C249.294 125.841 249.57 125.677 249.773 125.453C249.982 125.224 250.086 124.924 250.086 124.555C250.086 124.216 249.995 123.938 249.812 123.719C249.63 123.495 249.357 123.331 248.992 123.227C248.633 123.117 248.177 123.062 247.625 123.062H246.477V122H247.422C248.156 122 248.742 121.896 249.18 121.688C249.617 121.479 249.836 121.128 249.836 120.633C249.836 120.206 249.667 119.888 249.328 119.68C248.99 119.466 248.505 119.359 247.875 119.359C247.406 119.359 246.992 119.409 246.633 119.508C246.273 119.602 245.885 119.737 245.469 119.914L245.008 118.875C245.456 118.677 245.924 118.529 246.414 118.43C246.904 118.331 247.414 118.281 247.945 118.281ZM256.68 118.297C257.701 118.297 258.458 118.526 258.953 118.984C259.448 119.443 259.695 120.174 259.695 121.18V127H258.75L258.5 125.734H258.438C258.198 126.047 257.948 126.31 257.688 126.523C257.427 126.732 257.125 126.891 256.781 127C256.443 127.104 256.026 127.156 255.531 127.156C255.01 127.156 254.547 127.065 254.141 126.883C253.74 126.701 253.422 126.424 253.188 126.055C252.958 125.685 252.844 125.216 252.844 124.648C252.844 123.794 253.182 123.138 253.859 122.68C254.536 122.221 255.568 121.971 256.953 121.93L258.43 121.867V121.344C258.43 120.604 258.271 120.086 257.953 119.789C257.635 119.492 257.188 119.344 256.609 119.344C256.161 119.344 255.734 119.409 255.328 119.539C254.922 119.669 254.536 119.823 254.172 120L253.773 119.016C254.159 118.818 254.602 118.648 255.102 118.508C255.602 118.367 256.128 118.297 256.68 118.297ZM258.414 122.781L257.109 122.836C256.042 122.878 255.289 123.052 254.852 123.359C254.414 123.667 254.195 124.102 254.195 124.664C254.195 125.154 254.344 125.516 254.641 125.75C254.938 125.984 255.331 126.102 255.82 126.102C256.581 126.102 257.203 125.891 257.688 125.469C258.172 125.047 258.414 124.414 258.414 123.57V122.781ZM263.672 118.438V122.031H268.445V118.438H269.742V127H268.445V123.133H263.672V127H262.367V118.438H263.672ZM272.906 127H271.391L273.859 123.391C273.5 123.312 273.167 123.18 272.859 122.992C272.552 122.799 272.302 122.536 272.109 122.203C271.922 121.87 271.828 121.456 271.828 120.961C271.828 120.138 272.102 119.513 272.648 119.086C273.201 118.654 273.927 118.438 274.828 118.438H278.617V127H277.32V123.562H275.148L272.906 127ZM273.086 120.969C273.086 121.479 273.268 121.859 273.633 122.109C273.997 122.354 274.518 122.477 275.195 122.477H277.32V119.523H274.969C274.302 119.523 273.82 119.659 273.523 119.93C273.232 120.195 273.086 120.542 273.086 120.969ZM287.188 119.539H284.367V127H283.086V119.539H280.305V118.438H287.188V119.539ZM294.719 119.539H291.898V127H290.617V119.539H287.836V118.438H294.719V119.539ZM296.828 127H295.312L297.781 123.391C297.422 123.312 297.089 123.18 296.781 122.992C296.474 122.799 296.224 122.536 296.031 122.203C295.844 121.87 295.75 121.456 295.75 120.961C295.75 120.138 296.023 119.513 296.57 119.086C297.122 118.654 297.849 118.438 298.75 118.438H302.539V127H301.242V123.562H299.07L296.828 127ZM297.008 120.969C297.008 121.479 297.19 121.859 297.555 122.109C297.919 122.354 298.44 122.477 299.117 122.477H301.242V119.523H298.891C298.224 119.523 297.742 119.659 297.445 119.93C297.154 120.195 297.008 120.542 297.008 120.969Z" fill="#6E798C"/>
<path d="M214.146 62H212.166V54.674H204.114V62H202.134V46.292H204.114V52.936H212.166V46.292H214.146V62ZM220.113 50.208V62H218.177V50.208H220.113ZM219.167 45.786C219.46 45.786 219.717 45.8887 219.937 46.094C220.171 46.2847 220.289 46.5927 220.289 47.018C220.289 47.4287 220.171 47.7367 219.937 47.942C219.717 48.1473 219.46 48.25 219.167 48.25C218.844 48.25 218.573 48.1473 218.353 47.942C218.133 47.7367 218.023 47.4287 218.023 47.018C218.023 46.5927 218.133 46.2847 218.353 46.094C218.573 45.8887 218.844 45.786 219.167 45.786ZM236.499 50.208V62H234.761V54.476C234.761 54.168 234.768 53.8453 234.783 53.508C234.812 53.1707 234.841 52.8407 234.871 52.518H234.805L230.955 62H229.327L225.587 52.518H225.521C225.55 52.8407 225.565 53.1707 225.565 53.508C225.579 53.8453 225.587 54.19 225.587 54.542V62H223.849V50.208H226.423L230.141 59.69L233.925 50.208H236.499ZM244.817 49.988C245.829 49.988 246.694 50.208 247.413 50.648C248.146 51.088 248.703 51.7113 249.085 52.518C249.481 53.31 249.679 54.2413 249.679 55.312V56.478H241.605C241.634 57.8127 241.971 58.832 242.617 59.536C243.277 60.2253 244.193 60.57 245.367 60.57C246.115 60.57 246.775 60.504 247.347 60.372C247.933 60.2253 248.535 60.02 249.151 59.756V61.45C248.549 61.714 247.955 61.9047 247.369 62.022C246.782 62.154 246.085 62.22 245.279 62.22C244.164 62.22 243.174 61.9927 242.309 61.538C241.458 61.0833 240.791 60.4087 240.307 59.514C239.837 58.6047 239.603 57.4973 239.603 56.192C239.603 54.9013 239.815 53.794 240.241 52.87C240.681 51.946 241.289 51.2347 242.067 50.736C242.859 50.2373 243.775 49.988 244.817 49.988ZM244.795 51.572C243.871 51.572 243.137 51.8727 242.595 52.474C242.067 53.0607 241.751 53.882 241.649 54.938H247.655C247.655 54.2633 247.552 53.6767 247.347 53.178C247.141 52.6793 246.826 52.2907 246.401 52.012C245.99 51.7187 245.455 51.572 244.795 51.572ZM264.319 66.092H262.427V62H252.681V50.208H254.617V60.372H260.711V50.208H262.647V60.394H264.319V66.092ZM272.015 55.048C273.042 55.048 273.892 55.1727 274.567 55.422C275.242 55.6713 275.748 56.0453 276.085 56.544C276.437 57.028 276.613 57.644 276.613 58.392C276.613 59.1253 276.444 59.7633 276.107 60.306C275.784 60.8487 275.278 61.2667 274.589 61.56C273.9 61.8533 273.012 62 271.927 62H266.581V50.208H268.517V55.048H272.015ZM274.677 58.502C274.677 57.7833 274.42 57.2993 273.907 57.05C273.408 56.786 272.704 56.654 271.795 56.654H268.517V60.438H271.839C272.66 60.438 273.335 60.2913 273.863 59.998C274.406 59.7047 274.677 59.206 274.677 58.502ZM286.617 50.208H288.729L283.691 55.884L289.147 62H286.903L281.579 56.016V62H279.643V50.208H281.579V55.928L286.617 50.208ZM295.754 50.01C297.191 50.01 298.255 50.3253 298.944 50.956C299.633 51.5867 299.978 52.5913 299.978 53.97V62H298.57L298.196 60.328H298.108C297.771 60.7533 297.419 61.1127 297.052 61.406C296.7 61.6847 296.289 61.89 295.82 62.022C295.365 62.154 294.808 62.22 294.148 62.22C293.444 62.22 292.806 62.0953 292.234 61.846C291.677 61.5967 291.237 61.2153 290.914 60.702C290.591 60.174 290.43 59.514 290.43 58.722C290.43 57.5487 290.892 56.6467 291.816 56.016C292.74 55.3707 294.163 55.0187 296.084 54.96L298.086 54.894V54.19C298.086 53.2073 297.873 52.5253 297.448 52.144C297.023 51.7627 296.421 51.572 295.644 51.572C295.028 51.572 294.441 51.6673 293.884 51.858C293.327 52.034 292.806 52.2393 292.322 52.474L291.728 51.022C292.241 50.7433 292.85 50.5087 293.554 50.318C294.258 50.1127 294.991 50.01 295.754 50.01ZM296.326 56.302C294.859 56.3607 293.84 56.5953 293.268 57.006C292.711 57.4167 292.432 57.996 292.432 58.744C292.432 59.404 292.63 59.888 293.026 60.196C293.437 60.504 293.957 60.658 294.588 60.658C295.585 60.658 296.414 60.3867 297.074 59.844C297.734 59.2867 298.064 58.436 298.064 57.292V56.236L296.326 56.302ZM321.061 50.208V62H319.323V54.476C319.323 54.168 319.33 53.8453 319.345 53.508C319.374 53.1707 319.404 52.8407 319.433 52.518H319.367L315.517 62H313.889L310.149 52.518H310.083C310.112 52.8407 310.127 53.1707 310.127 53.508C310.142 53.8453 310.149 54.19 310.149 54.542V62H308.411V50.208H310.985L314.703 59.69L318.487 50.208H321.061ZM335.077 56.082C335.077 57.0647 334.945 57.9373 334.681 58.7C334.432 59.448 334.065 60.086 333.581 60.614C333.112 61.142 332.532 61.5453 331.843 61.824C331.168 62.088 330.413 62.22 329.577 62.22C328.8 62.22 328.081 62.088 327.421 61.824C326.761 61.5453 326.189 61.142 325.705 60.614C325.221 60.086 324.84 59.448 324.561 58.7C324.297 57.9373 324.165 57.0647 324.165 56.082C324.165 54.7767 324.385 53.6767 324.825 52.782C325.265 51.8727 325.896 51.1833 326.717 50.714C327.538 50.23 328.514 49.988 329.643 49.988C330.714 49.988 331.652 50.23 332.459 50.714C333.28 51.1833 333.918 51.8727 334.373 52.782C334.842 53.6767 335.077 54.7767 335.077 56.082ZM326.167 56.082C326.167 57.006 326.284 57.8127 326.519 58.502C326.768 59.1767 327.15 59.6973 327.663 60.064C328.176 60.4307 328.829 60.614 329.621 60.614C330.413 60.614 331.066 60.4307 331.579 60.064C332.092 59.6973 332.466 59.1767 332.701 58.502C332.95 57.8127 333.075 57.006 333.075 56.082C333.075 55.1433 332.95 54.344 332.701 53.684C332.452 53.024 332.07 52.518 331.557 52.166C331.058 51.7993 330.406 51.616 329.599 51.616C328.396 51.616 327.524 52.012 326.981 52.804C326.438 53.596 326.167 54.6887 326.167 56.082ZM347.627 53.178C347.627 53.9113 347.407 54.4833 346.967 54.894C346.527 55.3047 345.963 55.5833 345.273 55.73V55.818C346.007 55.9207 346.645 56.1847 347.187 56.61C347.73 57.0207 348.001 57.666 348.001 58.546C348.001 59.0447 347.906 59.5067 347.715 59.932C347.539 60.3573 347.261 60.724 346.879 61.032C346.498 61.34 346.007 61.582 345.405 61.758C344.804 61.9193 344.078 62 343.227 62H338.145V50.208H343.205C344.041 50.208 344.789 50.3033 345.449 50.494C346.124 50.67 346.652 50.978 347.033 51.418C347.429 51.8433 347.627 52.43 347.627 53.178ZM345.999 58.546C345.999 57.8713 345.743 57.3873 345.229 57.094C344.716 56.8007 343.961 56.654 342.963 56.654H340.081V60.438H343.007C343.975 60.438 344.716 60.2987 345.229 60.02C345.743 59.7267 345.999 59.2353 345.999 58.546ZM345.669 53.42C345.669 52.8627 345.464 52.4593 345.053 52.21C344.657 51.946 344.005 51.814 343.095 51.814H340.081V55.048H342.743C343.697 55.048 344.423 54.916 344.921 54.652C345.42 54.388 345.669 53.9773 345.669 53.42ZM355.287 50.01C356.725 50.01 357.788 50.3253 358.477 50.956C359.167 51.5867 359.511 52.5913 359.511 53.97V62H358.103L357.729 60.328H357.641C357.304 60.7533 356.952 61.1127 356.585 61.406C356.233 61.6847 355.823 61.89 355.353 62.022C354.899 62.154 354.341 62.22 353.681 62.22C352.977 62.22 352.339 62.0953 351.767 61.846C351.21 61.5967 350.77 61.2153 350.447 60.702C350.125 60.174 349.963 59.514 349.963 58.722C349.963 57.5487 350.425 56.6467 351.349 56.016C352.273 55.3707 353.696 55.0187 355.617 54.96L357.619 54.894V54.19C357.619 53.2073 357.407 52.5253 356.981 52.144C356.556 51.7627 355.955 51.572 355.177 51.572C354.561 51.572 353.975 51.6673 353.417 51.858C352.86 52.034 352.339 52.2393 351.855 52.474L351.261 51.022C351.775 50.7433 352.383 50.5087 353.087 50.318C353.791 50.1127 354.525 50.01 355.287 50.01ZM355.859 56.302C354.393 56.3607 353.373 56.5953 352.801 57.006C352.244 57.4167 351.965 57.996 351.965 58.744C351.965 59.404 352.163 59.888 352.559 60.196C352.97 60.504 353.491 60.658 354.121 60.658C355.119 60.658 355.947 60.3867 356.607 59.844C357.267 59.2867 357.597 58.436 357.597 57.292V56.236L355.859 56.302Z" fill="#081F32"/>
</svg>
