<svg width="124" height="124" viewBox="0 0 124 124" fill="none" xmlns="http://www.w3.org/2000/svg">
<path d="M62 124C96.2417 124 124 96.2417 124 62C124 27.7583 96.2417 0 62 0C27.7583 0 0 27.7583 0 62C0 96.2417 27.7583 124 62 124Z" fill="#F0F0F0"/>
<path d="M12.8166 24.2529C7.94643 30.5893 4.27414 37.8924 2.13586 45.8263H34.3899L12.8166 24.2529Z" fill="#0052B4"/>
<path d="M121.864 45.8263C119.726 37.8927 116.053 30.5895 111.183 24.2532L89.6106 45.8263H121.864Z" fill="#0052B4"/>
<path d="M2.13586 78.1741C4.27438 86.1076 7.94667 93.4108 12.8166 99.7469L34.3892 78.1741H2.13586Z" fill="#0052B4"/>
<path d="M99.7469 12.8167C93.4105 7.94655 86.1076 4.27426 78.1738 2.13574V34.3895L99.7469 12.8167Z" fill="#0052B4"/>
<path d="M24.2531 111.183C30.5895 116.053 37.8927 119.726 45.8262 121.864V89.6106L24.2531 111.183Z" fill="#0052B4"/>
<path d="M45.826 2.13574C37.8924 4.27426 30.5893 7.94655 24.2531 12.8165L45.826 34.3893V2.13574Z" fill="#0052B4"/>
<path d="M78.174 121.864C86.1076 119.726 93.4108 116.053 99.7469 111.183L78.174 89.6106V121.864Z" fill="#0052B4"/>
<path d="M89.6106 78.1741L111.183 99.7472C116.053 93.4111 119.726 86.1076 121.864 78.1741H89.6106Z" fill="#0052B4"/>
<path d="M123.475 53.9131H70.0874L70.0871 0.52482C67.4398 0.180188 64.7408 0 62 0C59.2587 0 56.5602 0.180188 53.9131 0.52482V53.9126L0.52482 53.9129C0.180188 56.5602 0 59.2592 0 62C0 64.7413 0.180188 67.4398 0.52482 70.0869H53.9126L53.9129 123.475C56.5602 123.82 59.2587 124 62 124C64.7408 124 67.4398 123.82 70.0869 123.475V70.0874L123.475 70.0871C123.82 67.4398 124 64.7413 124 62C124 59.2592 123.82 56.5602 123.475 53.9131Z" fill="#D80027"/>
<path d="M78.174 78.1743L105.841 105.841C107.113 104.569 108.327 103.239 109.485 101.86L85.7986 78.1741H78.174V78.1743Z" fill="#D80027"/>
<path d="M45.826 78.1743H45.8255L18.1592 105.841C19.4312 107.113 20.761 108.327 22.1396 109.485L45.826 85.7981V78.1743Z" fill="#D80027"/>
<path d="M45.826 45.8264V45.826L18.1595 18.1592C16.887 19.4311 15.6732 20.761 14.515 22.1395L38.2017 45.8262H45.826V45.8264Z" fill="#D80027"/>
<path d="M78.174 45.8266L105.841 18.1596C104.569 16.8871 103.239 15.6733 101.86 14.5154L78.174 38.202V45.8266Z" fill="#D80027"/>
</svg>
