<?xml version="1.0" encoding="utf-8"?>
<!-- Generator: Adobe Illustrator 25.0.0, SVG Export Plug-In . SVG Version: 6.00 Build 0)  -->
<svg version="1.1" id="Layer_1" xmlns="http://www.w3.org/2000/svg" xmlns:xlink="http://www.w3.org/1999/xlink" x="0px" y="0px"
	 viewBox="0 0 272.13 184.04" style="enable-background:new 0 0 272.13 184.04;" xml:space="preserve">
<style type="text/css">
	.st0{fill:#5BC0C9;}
</style>
<path class="st0" d="M44.87,133.27H23.88c-5,0-9.45-2.56-12.09-6.41l-0.02-0.04L0,111.37c2.67,2.75,6.38,4.47,10.48,4.47H48.3
	L44.87,133.27z M268.85,16.8l-0.07-0.09L255.96,0c1.74,2.41,2.78,5.36,2.78,8.54v92.69c0,8.04-6.57,14.61-14.6,14.61H134.87
	L38.29,166.6l13.4,17.44l96.56-50.77h109.27c8.03,0,14.6-6.57,14.6-14.61V25.99C272.13,22.5,270.9,19.3,268.85,16.8z M29.05,73.32
	c-3.27-4.78-4.9-9.79-4.9-15.03c0-13.21,3.44-23.85,10.3-31.94c6.87-8.08,15.01-12.13,24.43-12.13c3.57,0,6.49,1.05,8.77,3.13
	c2.28,2.09,3.42,4.73,3.42,7.92c0,3.19-0.8,6.15-2.39,8.88c-1.59,2.73-3.51,4.1-5.75,4.1c-2.24,0-3.36-0.61-3.36-1.82
	c0-1.37,0.74-2.92,2.22-4.67c1.48-1.74,2.22-3.49,2.22-5.24c0-5.39-2.86-8.08-8.6-8.08c-5.73,0-10.91,3.83-15.54,11.5
	c-4.63,7.67-6.95,15.56-6.95,23.69c0,5.62,1.59,10.61,4.78,14.97c3.19,4.37,7.67,6.55,13.44,6.55c6.83,0,13.4-4.56,19.7-13.67
	c0.08-0.11,0.17-0.26,0.26-0.4c0.17-4.71,1.65-9.17,4.47-13.38c3-4.48,6.85-6.72,11.56-6.72c2.12-1.52,4.65-2.28,7.57-2.28
	c2.92,0,5.63,1.56,8.14,4.67c2.5,3.11,3.79,7.17,3.87,12.18c3.03-0.98,5.14-1.84,6.32-2.56c0.06-0.04,0.11-0.07,0.17-0.11v-2.12
	c0-3.64,0.38-5.84,1.14-6.6c0.76-0.76,2.11-1.86,4.04-3.3c1.94-1.44,3.34-2.16,4.21-2.16c0.87,0,1.42,0.15,1.65,0.45
	c0.23,0.3,0.34,0.87,0.34,1.71c0,4.02-0.76,7.82-2.28,11.39c-0.38,4.33-0.57,7.33-0.57,9c0.3-0.45,1.9-3.03,4.78-7.74
	c2.89-4.71,5.33-8.16,7.35-10.36c2.01-2.2,3.81-3.3,5.41-3.3c1.6,0,3.02,0.53,4.27,1.59c1.25,1.06,1.88,2.39,1.88,3.98
	c0,3.34-0.36,8.26-1.08,14.75c-0.72,6.49-1.08,10.59-1.08,12.3c0,1.71,0.23,2.56,0.68,2.56c1.29-0.07,3.07-1.69,5.35-4.84
	c2.05-2.83,4.07-6.38,6.09-10.65c0.08-1.94,0.24-4.21,0.51-6.83c0.38-3.72,0.81-6,1.31-6.83c0.49-0.83,1.71-1.86,3.65-3.08
	c1.94-1.21,3.28-1.82,4.04-1.82c1.14,0,1.71,0.68,1.71,2.05c0,3.87-0.99,8.08-2.96,12.64c0,5.39,0.44,10,1.31,13.84
	c0.87,3.83,2.22,5.75,4.04,5.75c2.73,0,5.13-1.42,7.18-4.27c2.05-2.85,3.57-6.32,4.56-10.42c-2.73-0.83-4.82-2.3-6.26-4.38
	c-1.44-2.09-2.16-4.5-2.16-7.23c0-2.73,0.7-5.12,2.11-7.17c1.4-2.05,3.43-3.07,6.09-3.07c1.6,0,2.81,1.01,3.65,3.02
	c0.83,2.01,1.25,4.27,1.25,6.77c0,2.51-0.19,5.01-0.57,7.52c1.14,0.46,2.35,0.68,3.65,0.68c2.67,0,5.24-1.12,7.73-3.34
	c0.72-1.93,1.69-3.82,2.92-5.65c3-4.48,6.85-6.72,11.56-6.72c2.12-1.52,4.65-2.28,7.57-2.28c2.92,0,5.64,1.56,8.14,4.67
	c2.5,3.11,3.8,7.17,3.87,12.18c3.03-0.98,5.14-1.84,6.32-2.56c1.18-0.72,2.07-1.27,2.68-1.65l1.37-0.8
	c0.38-0.23,0.68-0.34,0.91-0.34c0.61,0,0.91,0.34,0.91,1.03c0,0.68-1.18,1.88-3.53,3.59c-2.35,1.71-5.27,3.24-8.77,4.61
	c-0.53,6.38-2.54,11.54-6.03,15.49c-3.5,3.95-8.47,5.92-14.92,5.92c-4.71,0-8.31-1.88-10.82-5.63c-2.51-3.76-3.76-8.16-3.76-13.21
	c0-1.37,0.12-2.72,0.34-4.05c-3.22,2.12-6.93,3.2-11.16,3.2c-1.44,5.54-3.68,10.21-6.72,14.01c-3.04,3.8-6.76,5.69-11.16,5.69
	c-2.58,0-4.71-1.1-6.38-3.3c-2.22-2.82-3.55-6.7-4.01-11.6c-5.09,9.93-9.45,14.9-13.07,14.9c-2.96,0-5.2-0.6-6.72-1.82
	c-0.53-0.53-0.8-1.92-0.8-4.15c0-2.24,0.21-5.89,0.63-10.93c0.42-5.05,0.62-8.82,0.62-11.33c0-2.5-0.44-3.76-1.31-3.76
	c-0.87,0-3.17,2.6-6.89,7.8c-3.72,5.2-5.69,8.52-5.92,9.96c-0.46,2.66-0.68,5.16-0.68,7.51l0.11,3.53c0,2.12-0.61,3.19-1.82,3.19
	c-1.82,0-3.57-0.25-5.24-0.74c-1.67-0.49-2.5-1.18-2.5-2.05c0-0.87,0.21-3.87,0.63-9c0.41-5.12,0.63-8.98,0.63-11.56v-1.26
	c-1.91,1.15-4.11,2.22-6.6,3.2c-0.53,6.38-2.55,11.54-6.03,15.49c-3.49,3.95-8.47,5.92-14.92,5.92c-4.71,0-8.31-1.88-10.82-5.63
	c-1.6-2.39-2.68-5.05-3.26-7.96C64.68,76.68,55.68,81.4,44.53,81.4c-3.27,0-6.26-0.76-8.99-2.28C32.8,77.61,30.64,75.67,29.05,73.32
	z M211.92,47.7c0,2.81,0.97,5.09,2.9,6.83s4.19,2.62,6.77,2.62h1.37c-0.16-3.72-0.78-7.1-1.88-10.13c-1.1-3.03-2.87-4.56-5.3-4.56
	c-1.21,0-2.16,0.55-2.85,1.65C212.26,45.21,211.92,46.41,211.92,47.7z M202.58,60.34c0,3.65,0.76,7.12,2.28,10.42
	c1.52,3.3,3.91,4.95,7.18,4.95c3.26,0,5.8-1.38,7.63-4.16c1.82-2.77,2.89-6.17,3.19-10.19l-4.1,0.23c-3.49,0-6.45-1.04-8.88-3.13
	c-2.43-2.09-3.64-4.38-3.64-6.89c0-2.51,0.42-4.67,1.25-6.49C204.21,47.66,202.58,52.75,202.58,60.34z M181.86,53.96
	c0.15-0.91,0.23-1.82,0.23-2.73c0-5.47-0.91-8.2-2.74-8.2c-0.61,0-0.91,1.25-0.91,3.76C178.44,49.29,179.58,51.68,181.86,53.96z
	 M88.37,47.7c0,2.81,0.97,5.09,2.9,6.83c1.94,1.75,4.19,2.62,6.77,2.62h1.37c-0.15-3.72-0.78-7.1-1.88-10.13
	c-1.1-3.03-2.87-4.56-5.3-4.56c-1.21,0-2.16,0.55-2.85,1.65C88.71,45.21,88.37,46.41,88.37,47.7z M79.03,60.34
	c0,3.65,0.76,7.12,2.28,10.42c1.52,3.3,3.91,4.95,7.17,4.95c3.26,0,5.81-1.38,7.63-4.16c1.82-2.77,2.89-6.17,3.19-10.19l-4.1,0.23
	c-3.49,0-6.45-1.04-8.88-3.13c-2.43-2.09-3.65-4.38-3.65-6.89c0-2.51,0.42-4.67,1.25-6.49C80.67,47.66,79.03,52.75,79.03,60.34z"/>
</svg>
